<svg xmlns="http://www.w3.org/2000/svg" xmlns:xlink="http://www.w3.org/1999/xlink" width="500" zoomAndPan="magnify" viewBox="0 0 375 374.999991" height="500" preserveAspectRatio="xMidYMid meet" version="1.0"><metadata><ContainsAiGeneratedContent>Yes</ContainsAiGeneratedContent></metadata><defs><filter x="0%" y="0%" width="100%" height="100%" id="756be9223b"><feColorMatrix values="0 0 0 0 1 0 0 0 0 1 0 0 0 0 1 0 0 0 1 0" color-interpolation-filters="sRGB"/></filter><g/><mask id="585700c691"><g filter="url(#756be9223b)"><rect x="-37.5" width="450" fill="#000000" y="-37.499999" height="449.999989" fill-opacity="0.19"/></g></mask><clipPath id="f458ea9716"><path d="M 0.800781 0 L 114.320312 0 L 114.320312 113.519531 L 0.800781 113.519531 Z M 0.800781 0 " clip-rule="nonzero"/></clipPath><clipPath id="247e5af489"><rect x="0" width="115" y="0" height="114"/></clipPath><clipPath id="d05ab63678"><path d="M 119.023438 161 L 252 161 L 252 238 L 119.023438 238 Z M 119.023438 161 " clip-rule="nonzero"/></clipPath><mask id="216cd67aab"><g filter="url(#756be9223b)"><rect x="-37.5" width="450" fill="#000000" y="-37.499999" height="449.999989" fill-opacity="0.66"/></g></mask><clipPath id="e3eb264ec5"><path d="M 0.398438 0.558594 L 116.558594 0.558594 L 116.558594 43 L 0.398438 43 Z M 0.398438 0.558594 " clip-rule="nonzero"/></clipPath><clipPath id="4ffb20e223"><rect x="0" width="117" y="0" height="44"/></clipPath><clipPath id="bf2b6e5a31"><path d="M 119.023438 102 L 256 102 L 256 240 L 119.023438 240 Z M 119.023438 102 " clip-rule="nonzero"/></clipPath><mask id="f7028810e7"><g filter="url(#756be9223b)"><rect x="-37.5" width="450" fill="#000000" y="-37.499999" height="449.999989" fill-opacity="0.74"/></g></mask><clipPath id="e16d43b7aa"><path d="M 0.480469 1 L 24.960938 1 L 24.960938 33.878906 L 0.480469 33.878906 Z M 0.480469 1 " clip-rule="nonzero"/></clipPath><clipPath id="1088902901"><rect x="0" width="25" y="0" height="34"/></clipPath><mask id="23c18d0be0"><g filter="url(#756be9223b)"><rect x="-37.5" width="450" fill="#000000" y="-37.499999" height="449.999989" fill-opacity="0.7"/></g></mask><clipPath id="c89edf79ef"><path d="M 4 0.878906 L 28.320312 0.878906 L 28.320312 98.800781 L 4 98.800781 Z M 4 0.878906 " clip-rule="nonzero"/></clipPath><mask id="fa80a90345"><g filter="url(#756be9223b)"><rect x="-286.5" width="540" fill="#000000" y="-216.499998" height="539.999987" fill-opacity="0.39"/></g></mask><clipPath id="a03b6ba816"><path d="M 0.078125 1 L 24.320312 1 L 24.320312 98.800781 L 0.078125 98.800781 Z M 0.078125 1 " clip-rule="nonzero"/></clipPath><clipPath id="ee9244ed53"><rect x="0" width="25" y="0" height="99"/></clipPath><clipPath id="ee5366f45f"><path d="M 0.238281 68 L 27 68 L 27 98 L 0.238281 98 Z M 0.238281 68 " clip-rule="nonzero"/></clipPath><mask id="5fedbbb817"><g filter="url(#756be9223b)"><rect x="-286.5" width="540" fill="#000000" y="-216.499998" height="539.999987" fill-opacity="0.39"/></g></mask><clipPath id="eeb355add8"><path d="M 0.238281 1 L 26.640625 1 L 26.640625 29 L 0.238281 29 Z M 0.238281 1 " clip-rule="nonzero"/></clipPath><clipPath id="545b903f6f"><rect x="0" width="27" y="0" height="30"/></clipPath><clipPath id="1c17cbc2b5"><rect x="0" width="29" y="0" height="99"/></clipPath><mask id="f40db77a2f"><g filter="url(#756be9223b)"><rect x="-37.5" width="450" fill="#000000" y="-37.499999" height="449.999989" fill-opacity="0.7"/></g></mask><clipPath id="5a741d3878"><path d="M 0.800781 0.800781 L 26 0.800781 L 26 98.71875 L 0.800781 98.71875 Z M 0.800781 0.800781 " clip-rule="nonzero"/></clipPath><mask id="f557514cbf"><g filter="url(#756be9223b)"><rect x="-224.5" width="540" fill="#000000" y="-218.499998" height="539.999987" fill-opacity="0.39"/></g></mask><clipPath id="f85ca43621"><path d="M 1 1 L 25 1 L 25 98.71875 L 1 98.71875 Z M 1 1 " clip-rule="nonzero"/></clipPath><clipPath id="56f478aabd"><rect x="0" width="26" y="0" height="99"/></clipPath><clipPath id="a0f976d4cb"><path d="M 2 68 L 29.121094 68 L 29.121094 98 L 2 98 Z M 2 68 " clip-rule="nonzero"/></clipPath><mask id="3557b63a88"><g filter="url(#756be9223b)"><rect x="-224.5" width="540" fill="#000000" y="-218.499998" height="539.999987" fill-opacity="0.39"/></g></mask><clipPath id="c2ed828cdf"><path d="M 0.238281 0.480469 L 27 0.480469 L 27 29 L 0.238281 29 Z M 0.238281 0.480469 " clip-rule="nonzero"/></clipPath><clipPath id="07cb12bde8"><rect x="0" width="28" y="0" height="30"/></clipPath><clipPath id="a63d467975"><rect x="0" width="30" y="0" height="99"/></clipPath><mask id="7ae0c389e7"><g filter="url(#756be9223b)"><rect x="-37.5" width="450" fill="#000000" y="-37.499999" height="449.999989" fill-opacity="0.31"/></g></mask><clipPath id="074c14afa9"><path d="M 0.480469 0.238281 L 39.359375 0.238281 L 39.359375 111.839844 L 0.480469 111.839844 Z M 0.480469 0.238281 " clip-rule="nonzero"/></clipPath><clipPath id="ceef0ac262"><rect x="0" width="40" y="0" height="112"/></clipPath><mask id="7ba27987ed"><g filter="url(#756be9223b)"><rect x="-37.5" width="450" fill="#000000" y="-37.499999" height="449.999989" fill-opacity="0.64"/></g></mask><clipPath id="2b7ee00fb5"><path d="M 0.398438 0.238281 L 36.878906 0.238281 L 36.878906 111.839844 L 0.398438 111.839844 Z M 0.398438 0.238281 " clip-rule="nonzero"/></clipPath><clipPath id="5aeceec43e"><rect x="0" width="37" y="0" height="112"/></clipPath><mask id="6820557768"><g filter="url(#756be9223b)"><rect x="-37.5" width="450" fill="#000000" y="-37.499999" height="449.999989" fill-opacity="0.33"/></g></mask><clipPath id="b6ff258bbc"><path d="M 0.398438 0.480469 L 22.960938 0.480469 L 22.960938 22 L 0.398438 22 Z M 0.398438 0.480469 " clip-rule="nonzero"/></clipPath><clipPath id="4a6db6837c"><rect x="0" width="23" y="0" height="23"/></clipPath><mask id="f789ea0b08"><g filter="url(#756be9223b)"><rect x="-37.5" width="450" fill="#000000" y="-37.499999" height="449.999989" fill-opacity="0.75"/></g></mask><clipPath id="570fdc441d"><path d="M 0.320312 0.558594 L 31 0.558594 L 31 8.238281 L 0.320312 8.238281 Z M 0.320312 0.558594 " clip-rule="nonzero"/></clipPath><clipPath id="2bf566cca0"><rect x="0" width="32" y="0" height="9"/></clipPath><mask id="7ece924b6a"><g filter="url(#756be9223b)"><rect x="-37.5" width="450" fill="#000000" y="-37.499999" height="449.999989" fill-opacity="0.5"/></g></mask><clipPath id="517a83bc58"><path d="M 0.558594 0.601562 L 6.800781 0.601562 L 6.800781 45.238281 L 0.558594 45.238281 Z M 0.558594 0.601562 " clip-rule="nonzero"/></clipPath><clipPath id="6b2c359ec7"><rect x="0" width="7" y="0" height="46"/></clipPath><mask id="0c1b7d6d0e"><g filter="url(#756be9223b)"><rect x="-37.5" width="450" fill="#000000" y="-37.499999" height="449.999989" fill-opacity="0.68"/></g></mask><clipPath id="a2c0461dec"><path d="M 0.558594 0.558594 L 6.800781 0.558594 L 6.800781 37 L 0.558594 37 Z M 0.558594 0.558594 " clip-rule="nonzero"/></clipPath><clipPath id="f0203bb0c2"><rect x="0" width="7" y="0" height="38"/></clipPath><clipPath id="e132c6ff96"><path d="M 167 66.761719 L 208 66.761719 L 208 115 L 167 115 Z M 167 66.761719 " clip-rule="nonzero"/></clipPath></defs><path fill="#1e2a38" d="M 252.433594 170.597656 C 252.433594 171.660156 252.40625 172.722656 252.355469 173.785156 C 252.300781 174.847656 252.222656 175.90625 252.121094 176.964844 C 252.015625 178.023438 251.886719 179.074219 251.730469 180.128906 C 251.574219 181.179688 251.394531 182.226562 251.183594 183.269531 C 250.976562 184.308594 250.746094 185.347656 250.488281 186.378906 C 250.230469 187.410156 249.945312 188.433594 249.636719 189.449219 C 249.328125 190.464844 248.996094 191.476562 248.636719 192.476562 C 248.277344 193.476562 247.898438 194.46875 247.488281 195.449219 C 247.082031 196.429688 246.652344 197.402344 246.199219 198.363281 C 245.742188 199.324219 245.265625 200.273438 244.765625 201.210938 C 244.265625 202.148438 243.742188 203.070312 243.195312 203.984375 C 242.648438 204.894531 242.078125 205.792969 241.488281 206.675781 C 240.898438 207.558594 240.285156 208.429688 239.652344 209.28125 C 239.019531 210.136719 238.367188 210.972656 237.691406 211.792969 C 237.019531 212.617188 236.324219 213.421875 235.609375 214.207031 C 234.898438 214.996094 234.164062 215.765625 233.414062 216.515625 C 232.660156 217.269531 231.890625 218 231.105469 218.714844 C 230.316406 219.429688 229.511719 220.121094 228.691406 220.796875 C 227.871094 221.46875 227.03125 222.125 226.179688 222.757812 C 225.324219 223.390625 224.457031 224 223.574219 224.59375 C 222.691406 225.183594 221.792969 225.75 220.878906 226.296875 C 219.96875 226.84375 219.042969 227.367188 218.105469 227.867188 C 217.167969 228.371094 216.222656 228.847656 215.261719 229.300781 C 214.300781 229.753906 213.328125 230.1875 212.347656 230.59375 C 211.363281 231 210.375 231.382812 209.371094 231.738281 C 208.371094 232.097656 207.363281 232.429688 206.347656 232.738281 C 205.328125 233.046875 204.304688 233.332031 203.273438 233.589844 C 202.242188 233.847656 201.207031 234.082031 200.164062 234.289062 C 199.121094 234.496094 198.074219 234.675781 197.023438 234.832031 C 195.972656 234.988281 194.917969 235.121094 193.859375 235.222656 C 192.804688 235.328125 191.742188 235.40625 190.683594 235.457031 C 189.621094 235.511719 188.558594 235.535156 187.496094 235.535156 C 186.433594 235.535156 185.371094 235.511719 184.308594 235.457031 C 183.25 235.40625 182.1875 235.328125 181.132812 235.222656 C 180.074219 235.121094 179.019531 234.988281 177.96875 234.832031 C 176.917969 234.675781 175.871094 234.496094 174.828125 234.289062 C 173.785156 234.082031 172.75 233.847656 171.71875 233.589844 C 170.6875 233.332031 169.664062 233.046875 168.644531 232.738281 C 167.628906 232.429688 166.621094 232.097656 165.621094 231.738281 C 164.617188 231.382812 163.628906 231 162.644531 230.59375 C 161.664062 230.1875 160.691406 229.753906 159.730469 229.300781 C 158.769531 228.847656 157.820312 228.371094 156.886719 227.867188 C 155.949219 227.367188 155.023438 226.84375 154.113281 226.296875 C 153.199219 225.75 152.300781 225.183594 151.417969 224.59375 C 150.535156 224 149.667969 223.390625 148.8125 222.757812 C 147.960938 222.125 147.121094 221.46875 146.300781 220.796875 C 145.480469 220.121094 144.675781 219.429688 143.886719 218.714844 C 143.097656 218 142.328125 217.269531 141.578125 216.515625 C 140.828125 215.765625 140.09375 214.996094 139.378906 214.207031 C 138.667969 213.421875 137.972656 212.617188 137.300781 211.792969 C 136.625 210.972656 135.972656 210.136719 135.339844 209.28125 C 134.703125 208.429688 134.09375 207.558594 133.503906 206.675781 C 132.914062 205.792969 132.34375 204.894531 131.796875 203.984375 C 131.25 203.070312 130.726562 202.148438 130.226562 201.210938 C 129.726562 200.273438 129.246094 199.324219 128.792969 198.363281 C 128.339844 197.402344 127.910156 196.429688 127.503906 195.449219 C 127.09375 194.46875 126.714844 193.476562 126.355469 192.476562 C 125.996094 191.476562 125.664062 190.464844 125.355469 189.449219 C 125.046875 188.433594 124.761719 187.410156 124.503906 186.378906 C 124.246094 185.347656 124.015625 184.308594 123.808594 183.269531 C 123.597656 182.226562 123.417969 181.179688 123.261719 180.128906 C 123.105469 179.074219 122.976562 178.023438 122.871094 176.964844 C 122.765625 175.90625 122.6875 174.847656 122.636719 173.785156 C 122.585938 172.722656 122.558594 171.660156 122.558594 170.597656 C 122.558594 169.535156 122.585938 168.472656 122.636719 167.414062 C 122.6875 166.351562 122.765625 165.292969 122.871094 164.234375 C 122.976562 163.175781 123.105469 162.121094 123.261719 161.070312 C 123.417969 160.019531 123.597656 158.972656 123.808594 157.929688 C 124.015625 156.886719 124.246094 155.851562 124.503906 154.820312 C 124.761719 153.789062 125.046875 152.765625 125.355469 151.75 C 125.664062 150.730469 125.996094 149.722656 126.355469 148.722656 C 126.714844 147.722656 127.09375 146.730469 127.503906 145.75 C 127.910156 144.765625 128.339844 143.796875 128.792969 142.835938 C 129.246094 141.875 129.726562 140.925781 130.226562 139.988281 C 130.726562 139.050781 131.25 138.125 131.796875 137.214844 C 132.34375 136.304688 132.914062 135.40625 133.503906 134.523438 C 134.09375 133.636719 134.703125 132.769531 135.339844 131.917969 C 135.972656 131.0625 136.625 130.226562 137.300781 129.402344 C 137.972656 128.582031 138.667969 127.777344 139.378906 126.988281 C 140.09375 126.203125 140.828125 125.433594 141.578125 124.679688 C 142.328125 123.929688 143.097656 123.199219 143.886719 122.484375 C 144.675781 121.769531 145.480469 121.078125 146.300781 120.402344 C 147.121094 119.726562 147.960938 119.074219 148.8125 118.441406 C 149.667969 117.808594 150.535156 117.195312 151.417969 116.605469 C 152.300781 116.015625 153.199219 115.445312 154.113281 114.902344 C 155.023438 114.355469 155.949219 113.832031 156.886719 113.328125 C 157.820312 112.828125 158.769531 112.351562 159.730469 111.898438 C 160.691406 111.441406 161.664062 111.011719 162.644531 110.605469 C 163.628906 110.199219 164.617188 109.816406 165.621094 109.457031 C 166.621094 109.101562 167.628906 108.765625 168.644531 108.457031 C 169.664062 108.148438 170.6875 107.867188 171.71875 107.609375 C 172.75 107.351562 173.785156 107.117188 174.828125 106.910156 C 175.871094 106.703125 176.917969 106.519531 177.96875 106.363281 C 179.019531 106.207031 180.074219 106.078125 181.132812 105.976562 C 182.1875 105.871094 183.25 105.792969 184.308594 105.738281 C 185.371094 105.6875 186.433594 105.660156 187.496094 105.660156 C 188.558594 105.660156 189.621094 105.6875 190.683594 105.738281 C 191.742188 105.792969 192.804688 105.871094 193.859375 105.976562 C 194.917969 106.078125 195.972656 106.207031 197.023438 106.363281 C 198.074219 106.519531 199.121094 106.703125 200.164062 106.910156 C 201.207031 107.117188 202.242188 107.351562 203.273438 107.609375 C 204.304688 107.867188 205.328125 108.148438 206.347656 108.457031 C 207.363281 108.765625 208.371094 109.101562 209.371094 109.457031 C 210.375 109.816406 211.363281 110.199219 212.347656 110.605469 C 213.328125 111.011719 214.300781 111.441406 215.261719 111.898438 C 216.222656 112.351562 217.167969 112.828125 218.105469 113.328125 C 219.042969 113.832031 219.96875 114.355469 220.878906 114.902344 C 221.792969 115.445312 222.691406 116.015625 223.574219 116.605469 C 224.457031 117.195312 225.324219 117.808594 226.179688 118.441406 C 227.03125 119.074219 227.871094 119.726562 228.691406 120.402344 C 229.511719 121.078125 230.316406 121.769531 231.105469 122.484375 C 231.890625 123.199219 232.660156 123.929688 233.414062 124.679688 C 234.164062 125.433594 234.898438 126.203125 235.609375 126.988281 C 236.324219 127.777344 237.019531 128.582031 237.691406 129.402344 C 238.367188 130.226562 239.019531 131.0625 239.652344 131.917969 C 240.285156 132.769531 240.898438 133.636719 241.488281 134.523438 C 242.078125 135.40625 242.648438 136.304688 243.195312 137.214844 C 243.742188 138.125 244.265625 139.050781 244.765625 139.988281 C 245.265625 140.925781 245.742188 141.875 246.199219 142.835938 C 246.652344 143.796875 247.082031 144.765625 247.488281 145.75 C 247.898438 146.730469 248.277344 147.722656 248.636719 148.722656 C 248.996094 149.722656 249.328125 150.730469 249.636719 151.75 C 249.945312 152.765625 250.230469 153.789062 250.488281 154.820312 C 250.746094 155.851562 250.976562 156.886719 251.183594 157.929688 C 251.394531 158.972656 251.574219 160.019531 251.730469 161.070312 C 251.886719 162.121094 252.015625 163.175781 252.121094 164.234375 C 252.222656 165.292969 252.300781 166.351562 252.355469 167.414062 C 252.40625 168.472656 252.433594 169.535156 252.433594 170.597656 Z M 252.433594 170.597656 " fill-opacity="1" fill-rule="nonzero"/><g mask="url(#585700c691)"><g transform="matrix(1, 0, 0, 1, 130, 114)"><g clip-path="url(#247e5af489)"><g clip-path="url(#f458ea9716)"><path fill="#ffffff" d="M 114.003906 56.597656 C 114.003906 58.449219 113.914062 60.296875 113.730469 62.136719 C 113.550781 63.980469 113.277344 65.808594 112.917969 67.621094 C 112.554688 69.4375 112.105469 71.230469 111.570312 73.003906 C 111.03125 74.773438 110.410156 76.511719 109.703125 78.222656 C 108.992188 79.933594 108.203125 81.605469 107.332031 83.234375 C 106.457031 84.867188 105.507812 86.453125 104.480469 87.992188 C 103.453125 89.53125 102.351562 91.015625 101.175781 92.445312 C 100.003906 93.878906 98.761719 95.246094 97.453125 96.554688 C 96.144531 97.863281 94.773438 99.105469 93.34375 100.28125 C 91.914062 101.453125 90.429688 102.554688 88.890625 103.582031 C 87.351562 104.609375 85.765625 105.5625 84.132812 106.433594 C 82.5 107.304688 80.828125 108.097656 79.121094 108.804688 C 77.410156 109.511719 75.671875 110.136719 73.898438 110.671875 C 72.128906 111.210938 70.335938 111.660156 68.519531 112.019531 C 66.703125 112.382812 64.875 112.652344 63.035156 112.832031 C 61.191406 113.015625 59.347656 113.105469 57.496094 113.105469 C 55.644531 113.105469 53.800781 113.015625 51.957031 112.832031 C 50.117188 112.652344 48.289062 112.382812 46.472656 112.019531 C 44.65625 111.660156 42.863281 111.210938 41.09375 110.671875 C 39.320312 110.136719 37.582031 109.511719 35.871094 108.804688 C 34.160156 108.097656 32.492188 107.304688 30.859375 106.433594 C 29.226562 105.5625 27.640625 104.609375 26.101562 103.582031 C 24.5625 102.554688 23.078125 101.453125 21.648438 100.28125 C 20.21875 99.105469 18.847656 97.863281 17.539062 96.554688 C 16.230469 95.246094 14.988281 93.878906 13.816406 92.445312 C 12.640625 91.015625 11.539062 89.53125 10.511719 87.992188 C 9.484375 86.453125 8.535156 84.867188 7.660156 83.234375 C 6.789062 81.605469 6 79.933594 5.289062 78.222656 C 4.582031 76.511719 3.960938 74.773438 3.421875 73.003906 C 2.886719 71.230469 2.4375 69.4375 2.074219 67.621094 C 1.714844 65.808594 1.441406 63.980469 1.261719 62.136719 C 1.078125 60.296875 0.988281 58.449219 0.988281 56.597656 C 0.988281 54.75 1.078125 52.902344 1.261719 51.058594 C 1.441406 49.21875 1.714844 47.390625 2.074219 45.574219 C 2.4375 43.761719 2.886719 41.96875 3.421875 40.195312 C 3.960938 38.425781 4.582031 36.683594 5.289062 34.976562 C 6 33.265625 6.789062 31.59375 7.660156 29.960938 C 8.535156 28.328125 9.484375 26.746094 10.511719 25.207031 C 11.539062 23.667969 12.640625 22.183594 13.816406 20.75 C 14.988281 19.320312 16.230469 17.953125 17.539062 16.644531 C 18.847656 15.335938 20.21875 14.09375 21.648438 12.917969 C 23.078125 11.746094 24.5625 10.644531 26.101562 9.617188 C 27.640625 8.585938 29.226562 7.636719 30.859375 6.765625 C 32.492188 5.890625 34.160156 5.101562 35.871094 4.394531 C 37.582031 3.683594 39.320312 3.0625 41.09375 2.523438 C 42.863281 1.988281 44.65625 1.539062 46.472656 1.179688 C 48.289062 0.816406 50.117188 0.546875 51.957031 0.363281 C 53.800781 0.183594 55.644531 0.09375 57.496094 0.09375 C 59.347656 0.09375 61.191406 0.183594 63.035156 0.363281 C 64.875 0.546875 66.703125 0.816406 68.519531 1.179688 C 70.335938 1.539062 72.128906 1.988281 73.898438 2.523438 C 75.671875 3.0625 77.410156 3.683594 79.121094 4.394531 C 80.828125 5.101562 82.5 5.890625 84.132812 6.765625 C 85.765625 7.636719 87.351562 8.585938 88.890625 9.617188 C 90.429688 10.644531 91.914062 11.746094 93.34375 12.917969 C 94.773438 14.09375 96.144531 15.335938 97.453125 16.644531 C 98.761719 17.953125 100.003906 19.320312 101.175781 20.75 C 102.351562 22.183594 103.453125 23.667969 104.480469 25.207031 C 105.507812 26.746094 106.457031 28.328125 107.332031 29.960938 C 108.203125 31.59375 108.992188 33.265625 109.703125 34.976562 C 110.410156 36.683594 111.03125 38.425781 111.570312 40.195312 C 112.105469 41.96875 112.554688 43.761719 112.917969 45.574219 C 113.277344 47.390625 113.550781 49.21875 113.730469 51.058594 C 113.914062 52.902344 114.003906 54.75 114.003906 56.597656 Z M 114.003906 56.597656 " fill-opacity="1" fill-rule="nonzero"/></g></g></g></g><path fill="#ffffff" d="M 231.214844 136.421875 L 227.023438 137.152344 C 226.199219 137.296875 225.558594 137.9375 225.414062 138.761719 L 224.683594 142.953125 L 223.953125 138.761719 C 223.808594 137.9375 223.167969 137.296875 222.34375 137.152344 L 218.152344 136.421875 L 222.34375 135.691406 C 223.167969 135.546875 223.808594 134.90625 223.953125 134.082031 L 224.683594 129.890625 L 225.414062 134.082031 C 225.558594 134.90625 226.199219 135.546875 227.023438 135.691406 Z M 231.214844 136.421875 " fill-opacity="1" fill-rule="nonzero"/><path fill="#ffffff" d="M 161.5 127.871094 L 157.3125 128.597656 C 156.488281 128.742188 155.84375 129.386719 155.699219 130.210938 L 154.96875 134.398438 L 154.242188 130.210938 C 154.097656 129.386719 153.453125 128.742188 152.628906 128.597656 L 148.441406 127.871094 L 152.628906 127.140625 C 153.453125 126.996094 154.097656 126.351562 154.242188 125.53125 L 154.96875 121.339844 L 155.699219 125.53125 C 155.84375 126.351562 156.488281 126.996094 157.3125 127.140625 Z M 161.5 127.871094 " fill-opacity="1" fill-rule="nonzero"/><path fill="#ffffff" d="M 140.980469 144.554688 L 136.789062 145.285156 C 135.964844 145.429688 135.324219 146.074219 135.179688 146.898438 L 134.449219 151.085938 L 133.71875 146.898438 C 133.574219 146.074219 132.933594 145.429688 132.109375 145.285156 L 127.917969 144.554688 L 132.109375 143.828125 C 132.933594 143.683594 133.574219 143.039062 133.71875 142.214844 L 134.449219 138.027344 L 135.179688 142.214844 C 135.324219 143.039062 135.964844 143.683594 136.789062 143.828125 Z M 140.980469 144.554688 " fill-opacity="1" fill-rule="nonzero"/><path fill="#ffffff" d="M 224.679688 121.339844 L 219.378906 122.261719 C 218.339844 122.445312 217.519531 123.261719 217.339844 124.300781 L 216.417969 129.601562 L 215.496094 124.300781 C 215.316406 123.261719 214.496094 122.445312 213.457031 122.261719 L 208.15625 121.339844 L 213.457031 120.417969 C 214.496094 120.238281 215.316406 119.421875 215.496094 118.378906 L 216.417969 113.078125 L 217.339844 118.378906 C 217.519531 119.421875 218.339844 120.238281 219.378906 120.417969 Z M 224.679688 121.339844 " fill-opacity="1" fill-rule="nonzero"/><path fill="#ffffff" d="M 164.492188 149.929688 L 157.253906 151.191406 C 155.832031 151.4375 154.71875 152.550781 154.472656 153.976562 L 153.210938 161.214844 L 151.949219 153.976562 C 151.703125 152.554688 150.589844 151.441406 149.167969 151.191406 L 141.925781 149.929688 L 149.167969 148.671875 C 150.585938 148.421875 151.699219 147.3125 151.949219 145.886719 L 153.210938 138.648438 L 154.472656 145.886719 C 154.71875 147.308594 155.832031 148.421875 157.253906 148.671875 Z M 164.492188 149.929688 " fill-opacity="1" fill-rule="nonzero"/><path fill="#ffffff" d="M 230.320312 159.890625 L 225.859375 160.664062 C 224.980469 160.816406 224.296875 161.503906 224.144531 162.378906 L 223.371094 166.839844 L 222.597656 162.378906 C 222.445312 161.503906 221.757812 160.816406 220.882812 160.664062 L 216.421875 159.890625 L 220.882812 159.117188 C 221.757812 158.964844 222.445312 158.277344 222.597656 157.402344 L 223.371094 152.941406 L 224.144531 157.402344 C 224.296875 158.277344 224.980469 158.964844 225.859375 159.117188 Z M 230.320312 159.890625 " fill-opacity="1" fill-rule="nonzero"/><g clip-path="url(#d05ab63678)"><path fill="#ffffff" d="M 119.167969 169.414062 C 132.625 166.957031 147.277344 173.675781 154.203125 185.46875 C 160.125 183.746094 166.679688 185.410156 171.785156 188.871094 C 176.890625 192.332031 180.695312 197.417969 183.703125 202.804688 C 190.488281 193.128906 203.953125 188.757812 215.128906 192.597656 C 213.742188 188.289062 215.003906 183.246094 218.253906 180.101562 C 221.503906 176.957031 226.585938 175.863281 230.84375 177.386719 C 231.191406 172.554688 233.640625 167.914062 237.429688 164.898438 C 241.222656 161.882812 246.296875 160.539062 251.082031 161.292969 C 254.648438 185.742188 243.265625 211.773438 222.882812 225.746094 C 202.507812 239.722656 174.125 240.972656 152.601562 228.839844 C 131.070312 216.703125 119.335938 191.863281 119.167969 169.414062 Z M 119.167969 169.414062 " fill-opacity="1" fill-rule="nonzero"/></g><path fill="#1e2a38" d="M 124.03125 187.78125 C 129.058594 184.851562 135.386719 184.242188 140.882812 186.160156 C 146.382812 188.078125 150.953125 192.492188 153.066406 197.914062 C 163.625 195.75 175.285156 202.121094 179.160156 212.175781 C 189.019531 201.578125 206.039062 198.460938 219.015625 204.871094 C 218.707031 200.117188 220.648438 195.265625 224.144531 192.03125 C 227.644531 188.800781 232.632812 187.246094 237.34375 187.921875 C 239.066406 180.742188 246.234375 175.269531 253.613281 175.511719 C 251.105469 188.242188 248.398438 201.433594 240.695312 211.878906 C 230.675781 225.472656 213.75 232.199219 197.183594 235.476562 C 187.011719 237.488281 176.289062 238.421875 166.402344 235.273438 C 158.507812 232.757812 151.609375 227.777344 145.527344 222.152344 C 135.40625 212.789062 126.929688 200.914062 124.03125 187.777344 Z M 124.03125 187.78125 " fill-opacity="1" fill-rule="nonzero"/><g mask="url(#216cd67aab)"><g transform="matrix(1, 0, 0, 1, 128, 196)"><g clip-path="url(#4ffb20e223)"><g clip-path="url(#e3eb264ec5)"><path fill="#101425" d="M 0.746094 5.085938 C 3.832031 2.527344 8.675781 2.378906 11.914062 4.746094 C 14.621094 1.789062 18.902344 0.359375 22.84375 1.101562 C 26.785156 1.84375 30.253906 4.730469 31.695312 8.472656 C 33.714844 5.914062 37.933594 6.226562 40.464844 8.273438 C 42.996094 10.324219 44.234375 13.53125 45.292969 16.609375 C 48.347656 14.066406 52.679688 13.136719 56.511719 14.207031 C 60.34375 15.277344 63.566406 18.316406 64.859375 22.078125 C 69.332031 14.074219 80.417969 10.589844 88.664062 14.59375 C 89.386719 11.808594 91.445312 9.40625 94.082031 8.265625 C 96.722656 7.128906 99.886719 7.28125 102.40625 8.664062 C 105.070312 4 111.476562 1.910156 116.382812 4.097656 C 110.585938 20.0625 97.558594 33.242188 81.660156 39.222656 C 65.761719 45.199219 47.28125 43.871094 32.398438 35.683594 C 19.675781 28.683594 10.03125 17.3125 0.746094 5.089844 Z M 0.746094 5.085938 " fill-opacity="1" fill-rule="nonzero"/></g></g></g></g><path fill="#002eff" d="M 155.292969 229.511719 C 155.320312 227.222656 156.867188 225.019531 159.015625 224.21875 C 161.160156 223.417969 163.769531 224.070312 165.292969 225.78125 C 165.660156 223.9375 167.109375 222.351562 168.914062 221.820312 C 170.722656 221.289062 172.800781 221.832031 174.109375 223.183594 C 174.742188 221.472656 176.464844 220.226562 178.285156 220.160156 C 180.101562 220.09375 181.917969 221.207031 182.675781 222.863281 C 186.296875 219.492188 192.625 219.648438 196.082031 223.1875 C 196.414062 221.46875 198.21875 220.179688 199.949219 220.410156 C 201.683594 220.640625 203.082031 222.363281 202.953125 224.105469 C 203.40625 222.726562 204.859375 221.75 206.304688 221.835938 C 207.753906 221.925781 209.074219 223.082031 209.355469 224.503906 C 211.207031 222.996094 213.90625 222.609375 216.105469 223.535156 C 218.304688 224.464844 219.910156 226.664062 220.125 229.042969 C 209.996094 234.285156 198.796875 237.738281 187.394531 237.894531 C 175.988281 238.046875 164.378906 234.742188 155.296875 229.507812 Z M 155.292969 229.511719 " fill-opacity="1" fill-rule="nonzero"/><path fill="#101425" d="M 169.519531 244.011719 L 169.519531 234.453125 L 205.929688 234.453125 L 205.929688 244.011719 C 205.929688 251.667969 196.074219 251.515625 187.722656 257.871094 C 172.316406 246.898438 169.515625 251.667969 169.515625 244.011719 Z M 169.519531 244.011719 " fill-opacity="1" fill-rule="nonzero"/><g clip-path="url(#bf2b6e5a31)"><path fill="#101425" d="M 187.496094 239.070312 C 178.25 239.070312 169.285156 237.257812 160.84375 233.691406 C 152.6875 230.242188 145.367188 225.308594 139.078125 219.015625 C 132.792969 212.730469 127.855469 205.40625 124.402344 197.253906 C 120.835938 188.808594 119.023438 179.84375 119.023438 170.597656 C 119.023438 161.355469 120.835938 152.390625 124.402344 143.945312 C 127.855469 135.792969 132.789062 128.472656 139.078125 122.179688 C 145.363281 115.894531 152.6875 110.957031 160.84375 107.507812 C 169.285156 103.933594 178.253906 102.125 187.496094 102.125 C 196.738281 102.125 205.707031 103.9375 214.148438 107.507812 C 222.304688 110.957031 229.625 115.890625 235.914062 122.179688 C 242.199219 128.46875 247.136719 135.792969 250.589844 143.945312 C 254.160156 152.390625 255.96875 161.359375 255.96875 170.597656 C 255.96875 179.839844 254.15625 188.808594 250.589844 197.253906 C 247.136719 205.40625 242.203125 212.726562 235.914062 219.015625 C 229.628906 225.304688 222.304688 230.242188 214.148438 233.691406 C 205.707031 237.261719 196.738281 239.070312 187.496094 239.070312 Z M 187.496094 106.488281 C 178.839844 106.488281 170.445312 108.183594 162.539062 111.523438 C 154.90625 114.753906 148.050781 119.378906 142.160156 125.265625 C 136.269531 131.15625 131.648438 138.011719 128.417969 145.644531 C 125.078125 153.546875 123.382812 161.945312 123.382812 170.601562 C 123.382812 179.257812 125.078125 187.652344 128.417969 195.558594 C 131.648438 203.191406 136.269531 210.046875 142.160156 215.9375 C 148.050781 221.828125 154.90625 226.449219 162.539062 229.679688 C 170.441406 233.019531 178.839844 234.714844 187.496094 234.714844 C 196.152344 234.714844 204.546875 233.019531 212.453125 229.679688 C 220.085938 226.449219 226.941406 221.828125 232.832031 215.9375 C 238.722656 210.046875 243.34375 203.195312 246.574219 195.558594 C 249.914062 187.65625 251.609375 179.257812 251.609375 170.601562 C 251.609375 161.945312 249.914062 153.550781 246.574219 145.644531 C 243.34375 138.015625 238.722656 131.15625 232.832031 125.265625 C 226.941406 119.378906 220.085938 114.753906 212.453125 111.523438 C 204.550781 108.183594 196.152344 106.488281 187.496094 106.488281 Z M 187.496094 106.488281 " fill-opacity="1" fill-rule="nonzero"/></g><path fill="#002eff" d="M 169.101562 111.648438 C 180.882812 108.457031 193.480469 108.355469 205.308594 111.359375 C 205.433594 95.226562 198.34375 79.171875 186.332031 68.398438 C 183.089844 69.804688 180.882812 72.84375 179.074219 75.875 C 172.859375 86.269531 169.34375 98.261719 169.101562 111.648438 Z M 169.101562 111.648438 " fill-opacity="1" fill-rule="nonzero"/><path fill="#002eff" d="M 205.84375 207.617188 C 214.019531 216.785156 222.980469 225.25 232.597656 232.890625 C 231.988281 222.738281 231.378906 212.589844 230.761719 202.4375 C 224.980469 193.695312 219.203125 184.945312 213.421875 176.199219 C 214.035156 164.523438 213.820312 152.804688 212.78125 141.164062 C 210.453125 137.699219 208.125 134.230469 205.796875 130.769531 C 205.503906 156.441406 205.207031 182.109375 205.84375 207.621094 Z M 205.84375 207.617188 " fill-opacity="1" fill-rule="nonzero"/><path fill="#002eff" d="M 141.929688 234.207031 C 151.765625 225.207031 161.601562 216.210938 171.4375 207.214844 C 171.4375 208.484375 171.433594 209.757812 171.429688 211.03125 C 172.136719 183.984375 171.328125 156.902344 169.011719 129.953125 C 166.710938 133.804688 164.414062 137.660156 162.117188 141.515625 C 162.449219 141.035156 162.78125 140.550781 163.113281 140.070312 C 162.84375 141.230469 162.578125 142.394531 162.3125 143.550781 C 161.585938 155.785156 160.859375 168.019531 160.128906 180.253906 C 160.261719 179.503906 160.394531 178.761719 160.523438 178.011719 C 154.679688 187.03125 148.835938 196.050781 142.992188 205.070312 C 143.34375 204.621094 143.695312 204.179688 144.050781 203.730469 C 143.386719 213.578125 142.722656 223.425781 141.933594 234.207031 Z M 141.929688 234.207031 " fill-opacity="1" fill-rule="nonzero"/><g mask="url(#f7028810e7)"><g transform="matrix(1, 0, 0, 1, 174, 77)"><g clip-path="url(#1088902901)"><g clip-path="url(#e16d43b7aa)"><path fill="#101425" d="M 0.539062 33.484375 C 2.410156 22.652344 5.945312 12.105469 10.972656 2.324219 C 11.695312 0.917969 13.699219 0.914062 14.421875 2.324219 C 19.261719 11.726562 22.730469 21.835938 24.675781 32.234375 C 16.433594 30.902344 7.910156 31.347656 0.539062 33.488281 Z M 0.539062 33.484375 " fill-opacity="1" fill-rule="nonzero"/></g></g></g></g><g mask="url(#23c18d0be0)"><g transform="matrix(1, 0, 0, 1, 204, 134)"><g clip-path="url(#1c17cbc2b5)"><g clip-path="url(#c89edf79ef)"><g mask="url(#fa80a90345)"><g transform="matrix(1, 0, 0, 1, 4, 0)"><g clip-path="url(#ee9244ed53)"><g clip-path="url(#a03b6ba816)"><path fill="#101425" d="M 24.058594 98.535156 C 22.351562 88.691406 20.167969 78.925781 17.0625 69.484375 C 11.761719 61 6.242188 52.65625 0.375 43.675781 C 0.628906 29.554688 0.882812 15.429688 1.140625 1.308594 C 3.863281 4.398438 4.277344 8.832031 4.5625 12.945312 C 5.25 22.882812 5.9375 32.820312 6.621094 42.757812 C 6.390625 42.203125 6.15625 41.652344 5.921875 41.097656 C 6.082031 41.71875 6.246094 42.34375 6.40625 42.96875 L 5.34375 41.5625 C 8.945312 47.339844 12.550781 53.121094 16.152344 58.898438 C 18.421875 62.539062 20.714844 66.230469 21.976562 70.328125 C 23.171875 74.226562 23.394531 78.351562 23.605469 82.421875 C 23.890625 87.835938 24.171875 93.257812 24.0625 98.539062 Z M 24.058594 98.535156 " fill-opacity="1" fill-rule="nonzero"/></g></g></g></g></g><g clip-path="url(#ee5366f45f)"><g mask="url(#5fedbbb817)"><g transform="matrix(1, 0, 0, 1, 0.000000000000028422, 68)"><g clip-path="url(#545b903f6f)"><g clip-path="url(#eeb355add8)"><path fill="#101425" d="M 0.691406 1.058594 C 5.320312 1.101562 9.949219 1.144531 14.996094 1.425781 C 17.449219 1.566406 19.542969 3.246094 20.199219 5.617188 L 26.597656 28.875 C 17.503906 22.382812 9.214844 14.765625 1.972656 6.257812 C 1.453125 5.648438 0.929688 5.015625 0.675781 4.257812 C 0.308594 3.171875 0.550781 1.976562 0.6875 1.058594 Z M 0.691406 1.058594 " fill-opacity="1" fill-rule="nonzero"/></g></g></g></g></g></g></g></g><g mask="url(#f40db77a2f)"><g transform="matrix(1, 0, 0, 1, 142, 136)"><g clip-path="url(#a63d467975)"><g clip-path="url(#5a741d3878)"><g mask="url(#f557514cbf)"><g><g clip-path="url(#56f478aabd)"><g clip-path="url(#f85ca43621)"><path fill="#101425" d="M 1.03125 98.453125 C 2.742188 88.609375 4.921875 78.839844 8.03125 69.402344 C 13.328125 60.917969 18.847656 52.574219 24.714844 43.59375 C 24.460938 29.472656 24.207031 15.347656 23.949219 1.226562 C 21.226562 4.316406 20.8125 8.75 20.527344 12.863281 C 19.839844 22.800781 19.15625 32.738281 18.46875 42.675781 C 18.703125 42.121094 18.933594 41.570312 19.167969 41.011719 C 19.007812 41.636719 18.847656 42.261719 18.683594 42.886719 L 19.746094 41.480469 C 16.144531 47.257812 12.539062 53.039062 8.9375 58.816406 C 6.671875 62.457031 4.375 66.148438 3.113281 70.246094 C 1.917969 74.144531 1.695312 78.265625 1.484375 82.335938 C 1.203125 87.753906 0.917969 93.175781 1.027344 98.457031 Z M 1.03125 98.453125 " fill-opacity="1" fill-rule="nonzero"/></g></g></g></g></g><g clip-path="url(#a0f976d4cb)"><g mask="url(#3557b63a88)"><g transform="matrix(1, 0, 0, 1, 2, 68)"><g clip-path="url(#07cb12bde8)"><g clip-path="url(#c2ed828cdf)"><path fill="#101425" d="M 26.398438 0.972656 C 21.769531 1.015625 17.140625 1.058594 12.09375 1.339844 C 9.640625 1.480469 7.546875 3.160156 6.894531 5.53125 L 0.492188 28.789062 C 9.585938 22.296875 17.878906 14.679688 25.117188 6.171875 C 25.636719 5.5625 26.160156 4.929688 26.414062 4.171875 C 26.78125 3.085938 26.539062 1.890625 26.402344 0.972656 Z M 26.398438 0.972656 " fill-opacity="1" fill-rule="nonzero"/></g></g></g></g></g></g></g></g><path fill="#ffffff" d="M 220.882812 208.015625 C 220.882812 208.246094 220.839844 208.46875 220.75 208.679688 C 220.664062 208.890625 220.535156 209.078125 220.375 209.242188 C 220.210938 209.40625 220.023438 209.53125 219.8125 209.617188 C 219.601562 209.707031 219.378906 209.75 219.148438 209.75 C 218.917969 209.75 218.699219 209.707031 218.484375 209.617188 C 218.273438 209.53125 218.085938 209.40625 217.921875 209.242188 C 217.761719 209.078125 217.636719 208.890625 217.546875 208.679688 C 217.460938 208.46875 217.414062 208.246094 217.414062 208.015625 C 217.414062 207.785156 217.460938 207.566406 217.546875 207.351562 C 217.636719 207.140625 217.761719 206.953125 217.921875 206.789062 C 218.085938 206.628906 218.273438 206.503906 218.484375 206.414062 C 218.699219 206.328125 218.917969 206.28125 219.148438 206.28125 C 219.378906 206.28125 219.601562 206.328125 219.8125 206.414062 C 220.023438 206.503906 220.210938 206.628906 220.375 206.789062 C 220.535156 206.953125 220.664062 207.140625 220.75 207.351562 C 220.839844 207.566406 220.882812 207.785156 220.882812 208.015625 Z M 220.882812 208.015625 " fill-opacity="1" fill-rule="nonzero"/><path fill="#ffffff" d="M 159.683594 209.007812 C 159.683594 209.238281 159.640625 209.457031 159.550781 209.671875 C 159.464844 209.882812 159.339844 210.070312 159.175781 210.234375 C 159.015625 210.394531 158.828125 210.519531 158.613281 210.609375 C 158.402344 210.695312 158.179688 210.742188 157.949219 210.742188 C 157.722656 210.742188 157.5 210.695312 157.289062 210.609375 C 157.074219 210.519531 156.886719 210.394531 156.726562 210.234375 C 156.5625 210.070312 156.4375 209.882812 156.347656 209.671875 C 156.261719 209.457031 156.21875 209.238281 156.21875 209.007812 C 156.21875 208.777344 156.261719 208.558594 156.347656 208.34375 C 156.4375 208.132812 156.5625 207.945312 156.726562 207.78125 C 156.886719 207.621094 157.074219 207.496094 157.289062 207.40625 C 157.5 207.320312 157.722656 207.273438 157.949219 207.273438 C 158.179688 207.273438 158.402344 207.320312 158.613281 207.40625 C 158.828125 207.496094 159.015625 207.621094 159.175781 207.78125 C 159.339844 207.945312 159.464844 208.132812 159.550781 208.34375 C 159.640625 208.558594 159.683594 208.777344 159.683594 209.007812 Z M 159.683594 209.007812 " fill-opacity="1" fill-rule="nonzero"/><path fill="#ffffff" d="M 176.640625 110.082031 C 178.847656 100.421875 181.789062 90.933594 185.429688 81.71875 C 184.761719 87.320312 184.257812 92.980469 184.789062 98.59375 C 185.265625 93.023438 185.738281 87.449219 186.207031 81.878906 C 186.332031 87.621094 186.457031 93.359375 186.578125 99.101562 C 186.972656 92.78125 187.179688 86.445312 187.203125 80.109375 C 190.007812 84.410156 191.859375 89.273438 193.160156 94.242188 C 194.457031 99.207031 195.222656 104.296875 195.980469 109.375 C 189.640625 108.867188 183.238281 109.101562 176.636719 110.082031 Z M 176.640625 110.082031 " fill-opacity="1" fill-rule="nonzero"/><path fill="#1e2a38" d="M 173.0625 218.25 C 183.34375 220.042969 193.925781 220.121094 204.234375 218.472656 C 205.1875 182.113281 206.140625 145.753906 207.085938 109.394531 C 194.285156 107.652344 181.144531 108.417969 168.628906 111.632812 C 169.28125 143.632812 169.929688 175.636719 170.578125 207.636719 C 170.65625 211.363281 170.742188 215.164062 173.0625 218.25 Z M 173.0625 218.25 " fill-opacity="1" fill-rule="nonzero"/><g mask="url(#7ae0c389e7)"><g transform="matrix(1, 0, 0, 1, 168, 108)"><g clip-path="url(#ceef0ac262)"><g clip-path="url(#074c14afa9)"><path fill="#ffffff" d="M 5.0625 110.25 C 15.34375 112.042969 25.925781 112.121094 36.234375 110.472656 C 37.1875 74.113281 38.140625 37.753906 39.085938 1.394531 C 26.285156 -0.347656 13.144531 0.417969 0.628906 3.632812 C 1.28125 35.632812 1.929688 67.636719 2.578125 99.636719 C 2.65625 103.363281 2.742188 107.164062 5.0625 110.25 Z M 5.0625 110.25 " fill-opacity="1" fill-rule="nonzero"/></g></g></g></g><g mask="url(#7ba27987ed)"><g transform="matrix(1, 0, 0, 1, 170, 108)"><g clip-path="url(#5aeceec43e)"><g clip-path="url(#2b7ee00fb5)"><path fill="#ffffff" d="M 0.71875 3.25 C 1.445312 26.261719 2.175781 49.277344 2.902344 72.289062 C 3.054688 77.078125 3.210938 81.894531 4.175781 86.585938 C 4.507812 88.203125 5.140625 90.035156 6.691406 90.589844 C 8.167969 91.125 9.84375 90.167969 10.65625 88.828125 C 11.472656 87.488281 11.632812 85.867188 11.769531 84.304688 C 13.140625 69.035156 14.507812 53.769531 15.875 38.503906 C 16.332031 52.125 16.796875 65.75 17.257812 79.371094 C 18.28125 66.285156 19.308594 53.203125 20.332031 40.117188 C 21.128906 60.265625 21.929688 80.414062 22.722656 100.5625 C 23.503906 84.484375 24.285156 68.410156 25.066406 52.332031 C 25.789062 71.933594 26.511719 91.535156 27.234375 111.136719 C 29.707031 112.25 32.722656 110.582031 34.039062 108.203125 C 35.355469 105.832031 35.417969 102.988281 35.445312 100.273438 C 35.800781 67.90625 36.15625 35.546875 36.511719 3.179688 C 24.085938 -0.757812 10.210938 0.0664062 0.710938 3.242188 Z M 0.71875 3.25 " fill-opacity="1" fill-rule="nonzero"/></g></g></g></g><path fill="#ffffff" d="M 174.242188 111.230469 C 173.871094 132.882812 174.285156 154.550781 175.492188 176.175781 C 176.757812 163.273438 178.023438 150.367188 179.289062 137.460938 C 178.484375 153.558594 177.675781 169.652344 176.871094 185.75 C 178.964844 165.1875 181.054688 144.632812 183.144531 124.070312 C 182.828125 133.707031 182.507812 143.34375 182.191406 152.980469 C 183.308594 143.777344 184.429688 134.578125 185.550781 125.378906 C 186.792969 134.335938 187.261719 143.40625 186.953125 152.445312 C 187.296875 145.460938 187.636719 138.46875 187.980469 131.484375 C 187.957031 138.761719 187.933594 146.042969 187.910156 153.320312 C 188.835938 144.320312 189.757812 135.320312 190.683594 126.3125 C 192.484375 137.175781 193.429688 148.183594 193.5 159.195312 C 194.453125 149.699219 195.402344 140.199219 196.351562 130.699219 C 197.226562 156.378906 198.097656 182.058594 198.96875 207.738281 C 200.621094 175.351562 201.640625 142.933594 202.03125 110.507812 C 191.996094 108.109375 181.296875 108.558594 174.25 111.222656 Z M 174.242188 111.230469 " fill-opacity="1" fill-rule="nonzero"/><path fill="#1e2a38" d="M 187.71875 123.820312 C 182.632812 123.964844 177.765625 127.238281 175.714844 131.890625 C 174.441406 134.785156 174.21875 138.132812 175.125 141.164062 C 176.03125 144.191406 178.054688 146.875 180.726562 148.566406 C 185.382812 151.507812 191.914062 151.09375 196.152344 147.578125 C 200.394531 144.0625 202.011719 137.71875 199.976562 132.597656 C 197.941406 127.480469 192.410156 123.976562 187.71875 123.820312 Z M 187.71875 123.820312 " fill-opacity="1" fill-rule="nonzero"/><g mask="url(#6820557768)"><g transform="matrix(1, 0, 0, 1, 176, 126)"><g clip-path="url(#4a6db6837c)"><g clip-path="url(#b6ff258bbc)"><path fill="#ffffff" d="M 8.898438 1.140625 C 5.234375 2.871094 1.820312 5.8125 0.957031 9.773438 C 0.34375 12.570312 1.140625 15.621094 2.960938 17.835938 C 4.78125 20.054688 7.558594 21.421875 10.417969 21.621094 C 13.277344 21.816406 16.183594 20.875 18.453125 19.121094 C 20.160156 17.800781 21.53125 16.003906 22.132812 13.933594 C 22.808594 11.605469 22.457031 9.03125 21.34375 6.878906 C 20.230469 4.726562 18.382812 2.988281 16.25 1.84375 C 13.988281 0.628906 11.144531 0.0859375 8.902344 1.144531 Z M 8.898438 1.140625 " fill-opacity="1" fill-rule="nonzero"/></g></g></g></g><path fill="#ffffff" d="M 177.277344 139.679688 C 182.140625 135.808594 186.957031 131.871094 191.71875 127.871094 C 193.414062 128.035156 194.761719 129.324219 195.960938 130.539062 C 190.648438 134.582031 185.5 138.847656 180.539062 143.316406 C 180.265625 143.566406 179.9375 143.832031 179.566406 143.800781 C 179.203125 143.773438 178.929688 143.464844 178.722656 143.167969 C 177.925781 142.042969 177.445312 140.703125 177.277344 139.683594 Z M 177.277344 139.679688 " fill-opacity="1" fill-rule="nonzero"/><path fill="#ffffff" d="M 182.074219 145.925781 C 187.105469 141.597656 192.097656 137.21875 197.042969 132.792969 C 197.738281 134.261719 198.101562 135.890625 198.097656 137.515625 C 194.699219 140.628906 191.300781 143.746094 187.902344 146.859375 C 187.515625 147.214844 187.089844 147.589844 186.5625 147.640625 C 186.210938 147.675781 185.867188 147.558594 185.53125 147.441406 C 184.625 147.125 183.714844 146.804688 182.804688 146.488281 C 182.304688 146.3125 181.800781 146.160156 182.074219 145.925781 Z M 182.074219 145.925781 " fill-opacity="1" fill-rule="nonzero"/><path fill="#101425" d="M 172.847656 219.363281 L 202.871094 219.363281 L 202.871094 234.078125 L 172.847656 234.078125 Z M 172.847656 219.363281 " fill-opacity="1" fill-rule="nonzero"/><path fill="#101425" d="M 202.871094 240.015625 L 172.847656 240.015625 L 172.847656 234.074219 L 202.871094 234.074219 Z M 202.871094 240.015625 " fill-opacity="1" fill-rule="nonzero"/><path fill="#101425" d="M 172.847656 234.078125 L 172.847656 244.554688 C 172.847656 246.96875 174.609375 246.3125 177.222656 248.925781 C 179.75 246.394531 181.59375 246.96875 181.59375 244.554688 L 181.59375 234.078125 C 181.59375 234.078125 172.851562 234.078125 172.851562 234.078125 Z M 172.847656 234.078125 " fill-opacity="1" fill-rule="nonzero"/><path fill="#101425" d="M 194.128906 234.324219 L 194.128906 244.800781 C 194.128906 247.214844 195.886719 246.558594 198.5 249.171875 C 201.03125 246.640625 202.871094 247.214844 202.871094 244.800781 L 202.871094 234.324219 C 202.871094 234.324219 194.128906 234.324219 194.128906 234.324219 Z M 194.128906 234.324219 " fill-opacity="1" fill-rule="nonzero"/><path fill="#002eff" d="M 183.488281 234.078125 L 183.488281 248.335938 C 183.488281 251.621094 185.246094 250.730469 187.859375 254.285156 C 190.390625 250.839844 192.234375 251.621094 192.234375 248.335938 L 192.234375 234.078125 C 192.234375 234.078125 183.492188 234.078125 183.492188 234.078125 Z M 183.488281 234.078125 " fill-opacity="1" fill-rule="nonzero"/><g mask="url(#f789ea0b08)"><g transform="matrix(1, 0, 0, 1, 172, 226)"><g clip-path="url(#2bf566cca0)"><g clip-path="url(#570fdc441d)"><path fill="#ffffff" d="M 0.847656 0.722656 L 30.871094 0.722656 L 30.871094 8.078125 L 0.847656 8.078125 Z M 0.847656 0.722656 " fill-opacity="1" fill-rule="nonzero"/></g></g></g></g><path fill="#002eff" d="M 187.367188 239.949219 C 182.863281 223.109375 183.203125 204.996094 188.339844 188.335938 C 192.242188 205.320312 191.914062 223.257812 187.367188 239.949219 Z M 187.367188 239.949219 " fill-opacity="1" fill-rule="nonzero"/><g mask="url(#7ece924b6a)"><g transform="matrix(1, 0, 0, 1, 184, 195)"><g clip-path="url(#6b2c359ec7)"><g clip-path="url(#517a83bc58)"><path fill="#101425" d="M 3.617188 45.109375 C 0.367188 31.234375 -0.0664062 16.710938 2.351562 2.667969 C 2.011719 7.996094 2.039062 13.351562 2.425781 18.675781 C 2.4375 14.304688 2.699219 9.933594 3.199219 5.589844 C 3.246094 9.832031 3.292969 14.070312 3.339844 18.3125 C 3.453125 13.957031 3.566406 9.605469 3.683594 5.253906 C 3.792969 10.402344 3.902344 15.554688 4.015625 20.707031 C 4.082031 14.097656 4.148438 7.488281 4.214844 0.875 C 7.128906 15.601562 7.09375 30.90625 3.613281 45.109375 Z M 3.617188 45.109375 " fill-opacity="1" fill-rule="nonzero"/></g></g></g></g><g mask="url(#0c1b7d6d0e)"><g transform="matrix(1, 0, 0, 1, 184, 202)"><g clip-path="url(#f0203bb0c2)"><g clip-path="url(#a2c0461dec)"><path fill="#101425" d="M 3.191406 36.578125 C 1.183594 27.789062 0.535156 18.6875 1.269531 9.699219 C 1.511719 12.804688 1.757812 15.914062 2.003906 19.019531 C 2.058594 17.289062 2.117188 15.558594 2.171875 13.828125 C 2.394531 16.523438 2.613281 19.222656 2.832031 21.917969 C 2.472656 19.285156 2.515625 16.601562 2.957031 13.980469 C 2.996094 17.363281 3.035156 20.75 3.078125 24.132812 C 3.421875 19.492188 3.773438 14.851562 4.117188 10.207031 C 4.171875 14.699219 4.226562 19.195312 4.285156 23.6875 C 4.371094 17.363281 4.707031 11.039062 5.28125 4.738281 C 5.292969 8.234375 5.300781 11.730469 5.3125 15.226562 C 5.480469 10.449219 5.652344 5.664062 5.824219 0.886719 C 7.242188 13.105469 6.539062 25.570312 3.195312 36.578125 Z M 3.191406 36.578125 " fill-opacity="1" fill-rule="nonzero"/></g></g></g></g><path fill="#101425" d="M 207.351562 110.871094 C 207.28125 110.40625 206.9375 110.023438 206.476562 109.917969 C 193.167969 106.730469 180.917969 107.132812 167.925781 111.191406 C 167.429688 111.34375 167.101562 111.8125 167.121094 112.328125 C 167.554688 125.441406 168.050781 138.5 168.535156 151.132812 C 169.363281 173.007812 170.226562 195.628906 170.761719 218.324219 C 170.777344 218.902344 171.214844 219.382812 171.789062 219.445312 C 172.765625 219.554688 173.746094 219.671875 174.730469 219.796875 C 177.679688 220.152344 180.667969 220.511719 183.808594 220.722656 C 184.300781 220.757812 184.796875 220.785156 185.296875 220.808594 C 185.265625 220.042969 185.246094 219.265625 185.234375 218.488281 C 184.734375 218.460938 184.238281 218.433594 183.746094 218.398438 C 180.726562 218.191406 177.847656 217.84375 175 217.5 C 174.347656 217.421875 173.695312 217.34375 173.046875 217.265625 C 173.003906 215.570312 172.960938 213.875 172.917969 212.179688 C 172.894531 211.402344 172.875 210.621094 172.855469 209.84375 C 172.316406 189.96875 171.566406 170.21875 170.835938 151.042969 C 170.367188 138.695312 169.878906 125.941406 169.449219 113.132812 C 181.4375 109.53125 192.804688 109.15625 205.074219 111.957031 C 205.105469 116.234375 204.804688 136.585938 204.289062 164.6875 C 203.945312 183.535156 203.609375 200.433594 203.390625 209.921875 C 203.371094 210.761719 203.351562 211.539062 203.335938 212.257812 C 203.28125 214.53125 203.238281 216.1875 203.203125 217.113281 C 198.9375 218.011719 195.074219 218.433594 191.476562 218.558594 C 190.976562 218.578125 190.484375 218.585938 189.992188 218.59375 C 189.957031 219.363281 189.917969 220.136719 189.871094 220.90625 C 190.363281 220.902344 190.859375 220.890625 191.359375 220.875 C 195.363281 220.75 199.695312 220.269531 204.550781 219.183594 L 204.550781 219.179688 C 204.628906 219.160156 204.707031 219.136719 204.785156 219.097656 C 204.785156 219.097656 204.863281 219.0625 204.863281 219.0625 C 205.199219 218.871094 205.410156 218.535156 205.449219 218.171875 L 205.464844 218.171875 C 205.59375 217.011719 206.152344 189.640625 206.609375 164.480469 C 206.894531 148.789062 207.539062 112.15625 207.355469 110.863281 Z M 207.351562 110.871094 " fill-opacity="1" fill-rule="nonzero"/><path fill="#101425" d="M 142.113281 235.683594 C 141.9375 235.683594 141.761719 235.644531 141.597656 235.5625 C 141.175781 235.351562 140.925781 234.90625 140.960938 234.4375 C 141.550781 227.132812 142.164062 219.839844 142.757812 212.785156 C 143.019531 209.664062 143.28125 206.578125 143.53125 203.554688 C 143.546875 203.390625 143.59375 203.234375 143.675781 203.089844 C 149.015625 193.5 154.445312 184.867188 160.261719 176.703125 C 160.402344 162.730469 160.730469 151.96875 161.324219 141.851562 C 161.339844 141.648438 161.40625 141.449219 161.515625 141.285156 L 168.007812 131.453125 C 168.359375 130.921875 169.078125 130.773438 169.609375 131.125 C 170.140625 131.476562 170.289062 132.195312 169.9375 132.726562 L 163.613281 142.292969 C 163.027344 152.371094 162.707031 163.121094 162.570312 177.085938 C 162.570312 177.320312 162.492188 177.550781 162.351562 177.746094 C 156.550781 185.863281 151.136719 194.453125 145.8125 203.996094 C 145.566406 206.941406 145.3125 209.945312 145.054688 212.980469 C 144.539062 219.113281 144.003906 225.425781 143.488281 231.765625 C 152.636719 223.679688 161.746094 215.351562 170.601562 206.976562 C 171.066406 206.539062 171.796875 206.558594 172.234375 207.023438 C 172.671875 207.484375 172.652344 208.214844 172.1875 208.652344 C 162.617188 217.699219 152.753906 226.695312 142.871094 235.390625 C 142.652344 235.582031 142.378906 235.679688 142.109375 235.679688 Z M 142.113281 235.683594 " fill-opacity="1" fill-rule="nonzero"/><path fill="#101425" d="M 232.878906 234.375 C 232.601562 234.375 232.328125 234.277344 232.117188 234.085938 C 223.210938 226.25 214.746094 218.5 203.816406 208.164062 C 203.351562 207.726562 203.332031 206.996094 203.769531 206.53125 C 204.207031 206.070312 204.9375 206.050781 205.402344 206.488281 C 215.429688 215.96875 223.378906 223.273438 231.5 230.460938 C 230.984375 224.113281 230.449219 217.792969 229.933594 211.65625 C 229.675781 208.625 229.425781 205.628906 229.175781 202.6875 C 223.851562 193.148438 218.441406 184.5625 212.636719 176.4375 C 212.496094 176.246094 212.421875 176.015625 212.417969 175.777344 C 212.28125 161.8125 211.960938 151.066406 211.375 140.988281 L 205.050781 131.417969 C 204.699219 130.886719 204.84375 130.171875 205.378906 129.820312 C 205.914062 129.46875 206.628906 129.617188 206.980469 130.148438 L 213.472656 139.976562 C 213.585938 140.148438 213.648438 140.339844 213.664062 140.546875 C 214.253906 150.664062 214.582031 161.421875 214.726562 175.394531 C 220.546875 183.558594 225.976562 192.195312 231.316406 201.78125 C 231.394531 201.925781 231.441406 202.085938 231.457031 202.25 C 231.707031 205.269531 231.96875 208.347656 232.230469 211.464844 C 232.824219 218.519531 233.441406 225.820312 234.03125 233.128906 C 234.066406 233.597656 233.816406 234.042969 233.394531 234.253906 C 233.230469 234.335938 233.054688 234.378906 232.878906 234.378906 Z M 232.878906 234.375 " fill-opacity="1" fill-rule="nonzero"/><path fill="#101425" d="M 187.667969 148.117188 C 181.527344 148.117188 176.53125 143.199219 176.53125 137.152344 C 176.53125 131.105469 181.527344 126.183594 187.667969 126.183594 C 193.804688 126.183594 198.800781 131.105469 198.800781 137.152344 C 198.800781 143.199219 193.804688 148.117188 187.667969 148.117188 Z M 187.667969 127.335938 C 182.164062 127.335938 177.6875 131.738281 177.6875 137.152344 C 177.6875 142.5625 182.164062 146.964844 187.667969 146.964844 C 193.167969 146.964844 197.644531 142.5625 197.644531 137.152344 C 197.644531 131.738281 193.167969 127.335938 187.667969 127.335938 Z M 187.667969 127.335938 " fill-opacity="1" fill-rule="nonzero"/><path fill="#101425" d="M 187.667969 151.085938 C 180.070312 151.085938 173.890625 144.90625 173.890625 137.3125 C 173.890625 129.714844 180.070312 123.535156 187.667969 123.535156 C 195.261719 123.535156 201.441406 129.714844 201.441406 137.3125 C 201.441406 144.90625 195.261719 151.085938 187.667969 151.085938 Z M 187.667969 124.691406 C 180.707031 124.691406 175.046875 130.351562 175.046875 137.3125 C 175.046875 144.269531 180.707031 149.929688 187.667969 149.929688 C 194.625 149.929688 200.285156 144.269531 200.285156 137.3125 C 200.285156 130.351562 194.625 124.691406 187.667969 124.691406 Z M 187.667969 124.691406 " fill-opacity="1" fill-rule="nonzero"/><path fill="#101425" d="M 185.375 210.765625 C 185.332031 211.535156 185.304688 212.304688 185.277344 213.070312 C 184.78125 213.058594 184.289062 213.042969 183.792969 213.027344 C 180.160156 212.894531 176.53125 212.617188 172.917969 212.179688 C 172.660156 212.148438 172.40625 212.117188 172.144531 212.082031 C 171.511719 212.003906 171.0625 211.425781 171.144531 210.792969 C 171.222656 210.164062 171.800781 209.714844 172.433594 209.792969 C 172.574219 209.8125 172.714844 209.828125 172.855469 209.84375 C 176.519531 210.292969 180.203125 210.585938 183.886719 210.71875 C 184.382812 210.738281 184.875 210.75 185.371094 210.765625 Z M 185.375 210.765625 " fill-opacity="1" fill-rule="nonzero"/><path fill="#101425" d="M 203.726562 212.210938 C 203.597656 212.226562 203.46875 212.242188 203.339844 212.257812 C 199.4375 212.707031 195.507812 212.980469 191.578125 213.070312 C 191.085938 213.085938 190.589844 213.09375 190.097656 213.101562 C 190.09375 212.328125 190.082031 211.5625 190.0625 210.792969 C 190.558594 210.785156 191.050781 210.777344 191.546875 210.765625 C 195.507812 210.667969 199.460938 210.390625 203.394531 209.925781 C 203.414062 209.925781 203.433594 209.921875 203.453125 209.921875 C 204.085938 209.84375 204.660156 210.296875 204.738281 210.929688 C 204.8125 211.566406 204.359375 212.140625 203.726562 212.214844 Z M 203.726562 212.210938 " fill-opacity="1" fill-rule="nonzero"/><path fill="#101425" d="M 168.636719 123.199219 C 168.210938 123.199219 167.804688 122.964844 167.601562 122.558594 C 167.316406 121.988281 167.550781 121.292969 168.117188 121.007812 C 173.433594 118.351562 179.796875 117.136719 187.050781 117.390625 C 193.460938 117.617188 199.632812 118.90625 205.914062 120.324219 C 206.535156 120.464844 206.925781 121.082031 206.785156 121.703125 C 206.644531 122.324219 206.027344 122.710938 205.40625 122.574219 C 199.238281 121.183594 193.183594 119.917969 186.972656 119.699219 C 180.113281 119.460938 174.117188 120.59375 169.152344 123.078125 C 168.988281 123.160156 168.808594 123.199219 168.636719 123.199219 Z M 168.636719 123.199219 " fill-opacity="1" fill-rule="nonzero"/><g clip-path="url(#e132c6ff96)"><path fill="#101425" d="M 168.320312 114.957031 C 168.320312 114.957031 168.308594 114.957031 168.304688 114.957031 C 167.667969 114.945312 167.160156 114.421875 167.167969 113.785156 C 167.300781 105.304688 169.019531 96.898438 172.285156 88.808594 C 175.507812 80.832031 180.0625 73.550781 185.828125 67.171875 C 186.035156 66.941406 186.324219 66.808594 186.632812 66.789062 C 186.941406 66.777344 187.238281 66.886719 187.464844 67.09375 C 193.480469 72.632812 198.476562 79.605469 201.917969 87.265625 C 205.367188 94.945312 207.25 103.316406 207.363281 111.460938 C 207.371094 111.933594 207.089844 112.359375 206.660156 112.542969 C 206.394531 112.65625 206.101562 112.660156 205.839844 112.570312 C 205.703125 112.539062 205.449219 112.472656 205.222656 112.246094 C 204.839844 111.867188 204.78125 111.28125 205.046875 110.835938 C 204.652344 95.546875 197.867188 80.261719 186.765625 69.601562 C 181.546875 75.566406 177.40625 82.316406 174.433594 89.675781 C 171.277344 97.503906 169.609375 105.628906 169.484375 113.824219 C 169.472656 114.453125 168.957031 114.957031 168.328125 114.957031 Z M 205.402344 112.300781 Z M 205.402344 112.300781 Z M 205.402344 112.300781 Z M 205.402344 112.300781 Z M 205.402344 112.300781 " fill-opacity="1" fill-rule="nonzero"/></g><path fill="#101425" d="M 191.546875 210.765625 C 191.355469 202.847656 190.371094 195.039062 188.589844 187.386719 C 188.511719 187.050781 188.210938 186.8125 187.867188 186.8125 L 187.863281 186.8125 C 187.515625 186.8125 187.21875 187.054688 187.140625 187.394531 C 185.351562 195.460938 184.269531 203.242188 183.886719 210.71875 C 183.847656 211.488281 183.816406 212.261719 183.792969 213.027344 C 183.734375 214.835938 183.722656 216.628906 183.742188 218.398438 C 183.757812 219.179688 183.777344 219.949219 183.804688 220.722656 C 184.074219 228.148438 185.097656 235.222656 186.867188 241.917969 C 186.953125 242.242188 187.25 242.46875 187.589844 242.46875 L 187.601562 242.46875 C 187.941406 242.460938 188.234375 242.226562 188.3125 241.894531 C 189.929688 234.835938 190.945312 227.820312 191.363281 220.875 C 191.414062 220.101562 191.453125 219.328125 191.480469 218.558594 C 191.558594 216.722656 191.589844 214.894531 191.582031 213.070312 C 191.578125 212.300781 191.566406 211.53125 191.550781 210.765625 Z M 189.871094 220.90625 C 189.519531 226.703125 188.738281 232.546875 187.542969 238.429688 C 186.273438 232.816406 185.527344 226.933594 185.296875 220.8125 C 185.265625 220.042969 185.246094 219.269531 185.234375 218.492188 C 185.203125 216.707031 185.21875 214.898438 185.277344 213.070312 C 185.304688 212.308594 185.332031 211.539062 185.375 210.765625 C 185.695312 204.4375 186.53125 197.878906 187.878906 191.113281 C 189.175781 197.578125 189.90625 204.144531 190.0625 210.792969 C 190.082031 211.5625 190.09375 212.332031 190.097656 213.101562 C 190.105469 214.925781 190.070312 216.753906 189.992188 218.59375 C 189.957031 219.363281 189.917969 220.136719 189.871094 220.90625 Z M 189.871094 220.90625 " fill-opacity="1" fill-rule="nonzero"/><path fill="#ffffff" d="M 238.515625 152.171875 C 238.515625 152.46875 238.460938 152.757812 238.347656 153.03125 C 238.234375 153.304688 238.070312 153.546875 237.859375 153.757812 C 237.648438 153.96875 237.40625 154.128906 237.132812 154.246094 C 236.859375 154.359375 236.574219 154.414062 236.273438 154.414062 C 235.976562 154.414062 235.691406 154.359375 235.417969 154.246094 C 235.140625 154.128906 234.898438 153.96875 234.691406 153.757812 C 234.480469 153.546875 234.316406 153.304688 234.203125 153.03125 C 234.089844 152.757812 234.03125 152.46875 234.03125 152.171875 C 234.03125 151.875 234.089844 151.589844 234.203125 151.316406 C 234.316406 151.039062 234.480469 150.796875 234.691406 150.585938 C 234.898438 150.378906 235.140625 150.214844 235.417969 150.101562 C 235.691406 149.988281 235.976562 149.929688 236.273438 149.929688 C 236.574219 149.929688 236.859375 149.988281 237.132812 150.101562 C 237.40625 150.214844 237.648438 150.378906 237.859375 150.585938 C 238.070312 150.796875 238.234375 151.039062 238.347656 151.316406 C 238.460938 151.589844 238.515625 151.875 238.515625 152.171875 Z M 238.515625 152.171875 " fill-opacity="1" fill-rule="nonzero"/><path fill="#ffffff" d="M 148.441406 173.078125 C 148.441406 173.222656 148.414062 173.363281 148.355469 173.496094 C 148.296875 173.632812 148.21875 173.75 148.113281 173.851562 C 148.007812 173.957031 147.886719 174.035156 147.75 174.089844 C 147.613281 174.144531 147.46875 174.175781 147.320312 174.175781 C 147.171875 174.175781 147.03125 174.144531 146.894531 174.089844 C 146.753906 174.035156 146.632812 173.957031 146.53125 173.851562 C 146.425781 173.75 146.34375 173.632812 146.285156 173.496094 C 146.230469 173.363281 146.203125 173.222656 146.203125 173.078125 C 146.203125 172.933594 146.230469 172.792969 146.285156 172.65625 C 146.34375 172.523438 146.425781 172.40625 146.53125 172.300781 C 146.632812 172.199219 146.753906 172.121094 146.894531 172.066406 C 147.03125 172.007812 147.171875 171.980469 147.320312 171.980469 C 147.46875 171.980469 147.613281 172.007812 147.75 172.066406 C 147.886719 172.121094 148.007812 172.199219 148.113281 172.300781 C 148.21875 172.40625 148.296875 172.523438 148.355469 172.65625 C 148.414062 172.792969 148.441406 172.933594 148.441406 173.078125 Z M 148.441406 173.078125 " fill-opacity="1" fill-rule="nonzero"/><path fill="#ffffff" d="M 135.054688 168.023438 C 135.054688 168.511719 134.964844 168.980469 134.785156 169.429688 C 134.605469 169.882812 134.347656 170.277344 134.011719 170.621094 C 133.675781 170.96875 133.289062 171.234375 132.855469 171.417969 C 132.417969 171.605469 131.960938 171.699219 131.488281 171.699219 C 131.015625 171.699219 130.558594 171.605469 130.121094 171.417969 C 129.683594 171.234375 129.300781 170.96875 128.964844 170.621094 C 128.628906 170.277344 128.371094 169.882812 128.191406 169.429688 C 128.011719 168.980469 127.917969 168.511719 127.917969 168.023438 C 127.917969 167.539062 128.011719 167.070312 128.191406 166.621094 C 128.371094 166.167969 128.628906 165.773438 128.964844 165.429688 C 129.300781 165.082031 129.683594 164.816406 130.121094 164.632812 C 130.558594 164.445312 131.015625 164.351562 131.488281 164.351562 C 131.960938 164.351562 132.417969 164.445312 132.855469 164.632812 C 133.289062 164.816406 133.675781 165.082031 134.011719 165.429688 C 134.347656 165.773438 134.605469 166.167969 134.785156 166.621094 C 134.964844 167.070312 135.054688 167.539062 135.054688 168.023438 Z M 135.054688 168.023438 " fill-opacity="1" fill-rule="nonzero"/><path fill="#ffffff" d="M 220.347656 148.082031 C 220.347656 148.230469 220.320312 148.375 220.261719 148.511719 C 220.207031 148.648438 220.128906 148.769531 220.027344 148.875 C 219.921875 148.980469 219.804688 149.058594 219.671875 149.117188 C 219.535156 149.171875 219.394531 149.203125 219.25 149.203125 C 219.105469 149.203125 218.964844 149.171875 218.832031 149.117188 C 218.695312 149.058594 218.578125 148.980469 218.476562 148.875 C 218.371094 148.769531 218.292969 148.648438 218.238281 148.511719 C 218.183594 148.375 218.152344 148.230469 218.152344 148.082031 C 218.152344 147.933594 218.183594 147.792969 218.238281 147.652344 C 218.292969 147.515625 218.371094 147.394531 218.476562 147.289062 C 218.578125 147.1875 218.695312 147.105469 218.832031 147.046875 C 218.964844 146.992188 219.105469 146.960938 219.25 146.960938 C 219.394531 146.960938 219.535156 146.992188 219.671875 147.046875 C 219.804688 147.105469 219.921875 147.1875 220.027344 147.289062 C 220.128906 147.394531 220.207031 147.515625 220.261719 147.652344 C 220.320312 147.792969 220.347656 147.933594 220.347656 148.082031 Z M 220.347656 148.082031 " fill-opacity="1" fill-rule="nonzero"/><g fill="#002eff" fill-opacity="1"><g transform="translate(85.652343, 285.656583)"><g><path d="M 11.15625 0 L 2.34375 0 L 2.34375 -21.015625 L 11.15625 -21.015625 Z M 11.15625 0 "/></g></g><g transform="translate(99.158201, 285.656583)"><g><path d="M 15.890625 0.453125 C 10.691406 0.453125 6.867188 -0.613281 4.421875 -2.75 C 2.253906 -4.632812 1.171875 -7.210938 1.171875 -10.484375 C 1.171875 -13.753906 2.253906 -16.335938 4.421875 -18.234375 C 6.867188 -20.367188 10.691406 -21.4375 15.890625 -21.4375 C 18.941406 -21.4375 21.460938 -21.085938 23.453125 -20.390625 C 25.441406 -19.691406 26.988281 -18.734375 28.09375 -17.515625 C 29.195312 -16.304688 29.929688 -14.921875 30.296875 -13.359375 L 21.015625 -13.359375 C 20.085938 -14.992188 18.378906 -15.8125 15.890625 -15.8125 C 13.765625 -15.8125 12.195312 -15.191406 11.1875 -13.953125 C 10.382812 -12.984375 9.984375 -11.828125 9.984375 -10.484375 C 9.984375 -9.148438 10.382812 -7.992188 11.1875 -7.015625 C 12.195312 -5.785156 13.765625 -5.171875 15.890625 -5.171875 C 18.378906 -5.171875 20.085938 -5.988281 21.015625 -7.625 L 30.296875 -7.625 C 29.929688 -6.0625 29.195312 -4.671875 28.09375 -3.453125 C 26.988281 -2.242188 25.441406 -1.289062 23.453125 -0.59375 C 21.460938 0.101562 18.941406 0.453125 15.890625 0.453125 Z M 15.890625 0.453125 "/></g></g><g transform="translate(130.623043, 285.656583)"><g><path d="M 35.296875 0 L 26.375 0 L 24.390625 -3.4375 L 11.140625 -3.4375 L 9.15625 0 L 0.21875 0 L 13.671875 -21 L 21.859375 -21 Z M 21.421875 -8.640625 L 17.765625 -15.015625 L 14.109375 -8.640625 Z M 21.421875 -8.640625 "/></g></g><g transform="translate(166.145501, 285.656583)"><g><path d="M 33.53125 0 L 23.046875 0 L 11.15625 -14.21875 L 11.15625 0 L 2.34375 0 L 2.34375 -21.015625 L 12.828125 -21.015625 L 24.71875 -6.875 L 24.71875 -21.015625 L 33.53125 -21.015625 Z M 33.53125 0 "/></g></g><g transform="translate(202.019522, 285.656583)"><g><path d="M 11.15625 0 L 2.34375 0 L 2.34375 -21.015625 L 26.5 -21.015625 L 26.5 -15.828125 L 11.15625 -15.828125 L 11.15625 -12.53125 L 24.125 -12.53125 L 24.125 -8.484375 L 11.15625 -8.484375 Z M 11.15625 0 "/></g></g><g transform="translate(229.690419, 285.656583)"><g><path d="M 26.875 0 L 2.34375 0 L 2.34375 -21.015625 L 11.15625 -21.015625 L 11.15625 -5.203125 L 26.875 -5.203125 Z M 26.875 0 "/></g></g><g transform="translate(257.156237, 285.656583)"><g><path d="M 20.515625 0 L 11.6875 0 L 11.6875 -9.96875 L 0.21875 -21.015625 L 9.984375 -21.015625 L 16.09375 -14.734375 L 22.1875 -21.015625 L 31.96875 -21.015625 L 20.515625 -9.96875 Z M 20.515625 0 "/></g></g></g><g fill="#1e2a38" fill-opacity="1"><g transform="translate(137.362421, 303.536699)"><g><path d="M 1.796875 -1.234375 C 0.890625 -2.117188 0.4375 -3.234375 0.4375 -4.578125 C 0.4375 -5.929688 0.890625 -7.046875 1.796875 -7.921875 C 2.703125 -8.804688 3.8125 -9.25 5.125 -9.25 C 6.132812 -9.25 7.035156 -8.976562 7.828125 -8.4375 C 8.617188 -7.90625 9.171875 -7.164062 9.484375 -6.21875 L 6.828125 -6.21875 C 6.484375 -6.882812 5.925781 -7.21875 5.15625 -7.21875 C 4.394531 -7.21875 3.796875 -6.976562 3.359375 -6.5 C 2.921875 -6.019531 2.703125 -5.378906 2.703125 -4.578125 C 2.703125 -3.785156 2.921875 -3.148438 3.359375 -2.671875 C 3.796875 -2.203125 4.394531 -1.96875 5.15625 -1.96875 C 5.925781 -1.96875 6.484375 -2.300781 6.828125 -2.96875 L 9.484375 -2.96875 C 9.171875 -2.007812 8.617188 -1.257812 7.828125 -0.71875 C 7.035156 -0.1875 6.132812 0.078125 5.125 0.078125 C 3.8125 0.078125 2.703125 -0.359375 1.796875 -1.234375 Z M 1.796875 -1.234375 "/></g></g></g><g fill="#1e2a38" fill-opacity="1"><g transform="translate(152.491432, 303.536699)"><g><path d="M 6.875 -2.671875 C 7.3125 -3.148438 7.53125 -3.785156 7.53125 -4.578125 C 7.53125 -5.378906 7.3125 -6.019531 6.875 -6.5 C 6.4375 -6.976562 5.847656 -7.21875 5.109375 -7.21875 C 4.378906 -7.21875 3.796875 -6.976562 3.359375 -6.5 C 2.921875 -6.019531 2.703125 -5.378906 2.703125 -4.578125 C 2.703125 -3.785156 2.921875 -3.148438 3.359375 -2.671875 C 3.796875 -2.203125 4.378906 -1.96875 5.109375 -1.96875 C 5.847656 -1.96875 6.4375 -2.203125 6.875 -2.671875 Z M 1.796875 -1.234375 C 0.890625 -2.117188 0.4375 -3.234375 0.4375 -4.578125 C 0.4375 -5.929688 0.890625 -7.046875 1.796875 -7.921875 C 2.703125 -8.804688 3.8125 -9.25 5.125 -9.25 C 6.4375 -9.25 7.539062 -8.804688 8.4375 -7.921875 C 9.332031 -7.046875 9.78125 -5.929688 9.78125 -4.578125 C 9.78125 -3.234375 9.328125 -2.117188 8.421875 -1.234375 C 7.523438 -0.347656 6.421875 0.09375 5.109375 0.09375 C 3.804688 0.09375 2.703125 -0.347656 1.796875 -1.234375 Z M 1.796875 -1.234375 "/></g></g></g><g fill="#1e2a38" fill-opacity="1"><g transform="translate(167.93234, 303.536699)"><g><path d="M 11.3125 -9.125 L 11.3125 0 L 9.09375 0 L 9.09375 -5.140625 L 6.96875 0 L 5.3125 0 L 3.203125 -5.140625 L 3.203125 0 L 0.96875 0 L 0.96875 -9.125 L 3.515625 -9.125 L 6.15625 -2.828125 L 8.765625 -9.125 Z M 11.3125 -9.125 "/></g></g></g><g fill="#1e2a38" fill-opacity="1"><g transform="translate(185.41363, 303.536699)"><g><path d="M 7.9375 -6.328125 C 7.9375 -5.710938 7.710938 -5.117188 7.265625 -4.546875 C 7.035156 -4.253906 6.6875 -4.015625 6.21875 -3.828125 C 5.757812 -3.640625 5.210938 -3.546875 4.578125 -3.546875 L 3.203125 -3.546875 L 3.203125 0 L 0.96875 0 L 0.96875 -9.125 L 4.578125 -9.125 C 5.628906 -9.125 6.453125 -8.847656 7.046875 -8.296875 C 7.640625 -7.753906 7.9375 -7.097656 7.9375 -6.328125 Z M 3.203125 -5.234375 L 4.578125 -5.234375 C 4.910156 -5.234375 5.175781 -5.332031 5.375 -5.53125 C 5.570312 -5.738281 5.671875 -6.003906 5.671875 -6.328125 C 5.671875 -6.648438 5.566406 -6.914062 5.359375 -7.125 C 5.160156 -7.332031 4.898438 -7.4375 4.578125 -7.4375 L 3.203125 -7.4375 Z M 3.203125 -5.234375 "/></g></g></g><g fill="#1e2a38" fill-opacity="1"><g transform="translate(198.905138, 303.536699)"><g><path d="M 6.765625 0 L 6.265625 -1.53125 L 2.984375 -1.53125 L 2.484375 0 L 0.109375 0 L 3.28125 -9.15625 L 6 -9.15625 L 9.15625 0 Z M 3.546875 -3.21875 L 5.703125 -3.21875 L 4.625 -6.46875 Z M 3.546875 -3.21875 "/></g></g></g><g fill="#1e2a38" fill-opacity="1"><g transform="translate(213.371339, 303.536699)"><g><path d="M 6.921875 -9.15625 L 9.140625 -9.15625 L 9.140625 0 L 6.921875 0 L 3.203125 -5.765625 L 3.203125 0 L 0.96875 0 L 0.96875 -9.15625 L 3.203125 -9.15625 L 6.921875 -3.390625 Z M 6.921875 -9.15625 "/></g></g></g><g fill="#1e2a38" fill-opacity="1"><g transform="translate(228.682285, 303.536699)"><g><path d="M 5.578125 0 L 3.359375 0 L 3.359375 -2.9375 L 0.1875 -9.125 L 2.71875 -9.125 L 4.46875 -5 L 6.21875 -9.125 L 8.734375 -9.125 L 5.578125 -2.9375 Z M 5.578125 0 "/></g></g></g></svg>