<svg xmlns="http://www.w3.org/2000/svg" xmlns:xlink="http://www.w3.org/1999/xlink" width="500" zoomAndPan="magnify" viewBox="0 0 375 374.999991" height="500" preserveAspectRatio="xMidYMid meet" version="1.0"><defs><filter x="0%" y="0%" width="100%" height="100%" id="13e5f8f7fb"><feColorMatrix values="0 0 0 0 1 0 0 0 0 1 0 0 0 0 1 0 0 0 1 0" color-interpolation-filters="sRGB"/></filter><g/><mask id="a832c80c8d"><g filter="url(#13e5f8f7fb)"><rect x="-37.5" width="450" fill="#000000" y="-37.499999" height="449.999989" fill-opacity="0.19"/></g></mask><clipPath id="f71dd28e1e"><path d="M 0.359375 0.441406 L 176.519531 0.441406 L 176.519531 176.359375 L 0.359375 176.359375 Z M 0.359375 0.441406 " clip-rule="nonzero"/></clipPath><clipPath id="489284a198"><rect x="0" width="177" y="0" height="177"/></clipPath><clipPath id="917d293a02"><path d="M 81.15625 146 L 288 146 L 288 265 L 81.15625 265 Z M 81.15625 146 " clip-rule="nonzero"/></clipPath><mask id="76cdd00115"><g filter="url(#13e5f8f7fb)"><rect x="-37.5" width="450" fill="#000000" y="-37.499999" height="449.999989" fill-opacity="0.66"/></g></mask><clipPath id="08d3b195eb"><path d="M 1 1 L 181 1 L 181 66.839844 L 1 66.839844 Z M 1 1 " clip-rule="nonzero"/></clipPath><clipPath id="bda25513a5"><rect x="0" width="181" y="0" height="67"/></clipPath><clipPath id="304467e343"><path d="M 81.15625 54 L 294 54 L 294 268 L 81.15625 268 Z M 81.15625 54 " clip-rule="nonzero"/></clipPath><mask id="da3550780f"><g filter="url(#13e5f8f7fb)"><rect x="-37.5" width="450" fill="#000000" y="-37.499999" height="449.999989" fill-opacity="0.74"/></g></mask><clipPath id="e7d7817b57"><path d="M 0.28125 0.28125 L 38 0.28125 L 38 51 L 0.28125 51 Z M 0.28125 0.28125 " clip-rule="nonzero"/></clipPath><clipPath id="64349440a6"><rect x="0" width="39" y="0" height="52"/></clipPath><mask id="4239dd8e0f"><g filter="url(#13e5f8f7fb)"><rect x="-37.5" width="450" fill="#000000" y="-37.499999" height="449.999989" fill-opacity="0.7"/></g></mask><clipPath id="38cd0f2f16"><path d="M 6 0.078125 L 44.28125 0.078125 L 44.28125 151.519531 L 6 151.519531 Z M 6 0.078125 " clip-rule="nonzero"/></clipPath><mask id="60d7dae7f8"><g filter="url(#13e5f8f7fb)"><rect x="-295.5" width="540" fill="#000000" y="-188.499998" height="539.999987" fill-opacity="0.39"/></g></mask><clipPath id="8663747a2c"><path d="M 0.601562 0.078125 L 38 0.078125 L 38 151.519531 L 0.601562 151.519531 Z M 0.601562 0.078125 " clip-rule="nonzero"/></clipPath><clipPath id="237814d278"><rect x="0" width="39" y="0" height="152"/></clipPath><clipPath id="f082c1662a"><path d="M 0.601562 105 L 42 105 L 42 150 L 0.601562 150 Z M 0.601562 105 " clip-rule="nonzero"/></clipPath><mask id="363470d88a"><g filter="url(#13e5f8f7fb)"><rect x="-295.5" width="540" fill="#000000" y="-188.499998" height="539.999987" fill-opacity="0.39"/></g></mask><clipPath id="a86f4d0da2"><path d="M 0.601562 0.441406 L 41.640625 0.441406 L 41.640625 44 L 0.601562 44 Z M 0.601562 0.441406 " clip-rule="nonzero"/></clipPath><clipPath id="f7e1053d33"><rect x="0" width="42" y="0" height="45"/></clipPath><clipPath id="5b4ac24a23"><rect x="0" width="45" y="0" height="152"/></clipPath><mask id="de8680bea1"><g filter="url(#13e5f8f7fb)"><rect x="-37.5" width="450" fill="#000000" y="-37.499999" height="449.999989" fill-opacity="0.7"/></g></mask><clipPath id="8e2d92da73"><path d="M 0.320312 0.960938 L 38 0.960938 L 38 152.640625 L 0.320312 152.640625 Z M 0.320312 0.960938 " clip-rule="nonzero"/></clipPath><mask id="15c2bcc9c4"><g filter="url(#13e5f8f7fb)"><rect x="-200.5" width="540" fill="#000000" y="-190.499998" height="539.999987" fill-opacity="0.39"/></g></mask><clipPath id="73b6fde7df"><path d="M 0.320312 1 L 37.761719 1 L 37.761719 152.640625 L 0.320312 152.640625 Z M 0.320312 1 " clip-rule="nonzero"/></clipPath><clipPath id="0813c50f26"><rect x="0" width="38" y="0" height="153"/></clipPath><clipPath id="86259c723c"><path d="M 2 106 L 43.761719 106 L 43.761719 151 L 2 151 Z M 2 106 " clip-rule="nonzero"/></clipPath><mask id="1464919200"><g filter="url(#13e5f8f7fb)"><rect x="-200.5" width="540" fill="#000000" y="-190.499998" height="539.999987" fill-opacity="0.39"/></g></mask><clipPath id="2e235d043c"><path d="M 0.238281 0.078125 L 41.761719 0.078125 L 41.761719 44 L 0.238281 44 Z M 0.238281 0.078125 " clip-rule="nonzero"/></clipPath><clipPath id="353118856c"><rect x="0" width="42" y="0" height="45"/></clipPath><clipPath id="5bcb16e591"><rect x="0" width="44" y="0" height="153"/></clipPath><mask id="eef86ccd64"><g filter="url(#13e5f8f7fb)"><rect x="-37.5" width="450" fill="#000000" y="-37.499999" height="449.999989" fill-opacity="0.31"/></g></mask><clipPath id="9dad836584"><path d="M 1 0.558594 L 61 0.558594 L 61 173.839844 L 1 173.839844 Z M 1 0.558594 " clip-rule="nonzero"/></clipPath><clipPath id="03462d6341"><rect x="0" width="62" y="0" height="174"/></clipPath><mask id="f047818e5a"><g filter="url(#13e5f8f7fb)"><rect x="-37.5" width="450" fill="#000000" y="-37.499999" height="449.999989" fill-opacity="0.64"/></g></mask><clipPath id="17e3b0148c"><path d="M 0.0390625 0.558594 L 56.441406 0.558594 L 56.441406 173.839844 L 0.0390625 173.839844 Z M 0.0390625 0.558594 " clip-rule="nonzero"/></clipPath><clipPath id="c94046ca67"><rect x="0" width="57" y="0" height="174"/></clipPath><mask id="624dfeba0a"><g filter="url(#13e5f8f7fb)"><rect x="-37.5" width="450" fill="#000000" y="-37.499999" height="449.999989" fill-opacity="0.33"/></g></mask><clipPath id="4ee260f520"><path d="M 0.160156 0.640625 L 35 0.640625 L 35 34 L 0.160156 34 Z M 0.160156 0.640625 " clip-rule="nonzero"/></clipPath><clipPath id="47c232c031"><rect x="0" width="36" y="0" height="34"/></clipPath><mask id="5d065ebf7b"><g filter="url(#13e5f8f7fb)"><rect x="-37.5" width="450" fill="#000000" y="-37.499999" height="449.999989" fill-opacity="0.75"/></g></mask><clipPath id="c0a09e2f63"><path d="M 0.160156 0.160156 L 47.679688 0.160156 L 47.679688 12 L 0.160156 12 Z M 0.160156 0.160156 " clip-rule="nonzero"/></clipPath><clipPath id="39bbcb5506"><rect x="0" width="48" y="0" height="13"/></clipPath><mask id="aa1044037f"><g filter="url(#13e5f8f7fb)"><rect x="-37.5" width="450" fill="#000000" y="-37.499999" height="449.999989" fill-opacity="0.5"/></g></mask><clipPath id="09ce661c4a"><path d="M 0.121094 0.398438 L 9 0.398438 L 9 69.28125 L 0.121094 69.28125 Z M 0.121094 0.398438 " clip-rule="nonzero"/></clipPath><clipPath id="2d39773d66"><rect x="0" width="10" y="0" height="70"/></clipPath><mask id="c4f220f4e0"><g filter="url(#13e5f8f7fb)"><rect x="-37.5" width="450" fill="#000000" y="-37.499999" height="449.999989" fill-opacity="0.68"/></g></mask><clipPath id="ee20d9e6b6"><path d="M 0.121094 1 L 9.480469 1 L 9.480469 57 L 0.121094 57 Z M 0.121094 1 " clip-rule="nonzero"/></clipPath><clipPath id="084fd90798"><rect x="0" width="10" y="0" height="58"/></clipPath></defs><path fill="#1e2a38" d="M 288.351562 161.261719 C 288.351562 162.910156 288.308594 164.5625 288.230469 166.210938 C 288.148438 167.859375 288.027344 169.503906 287.863281 171.144531 C 287.703125 172.789062 287.5 174.425781 287.257812 176.058594 C 287.015625 177.691406 286.734375 179.316406 286.414062 180.9375 C 286.089844 182.554688 285.730469 184.164062 285.328125 185.765625 C 284.925781 187.367188 284.488281 188.957031 284.007812 190.535156 C 283.527344 192.117188 283.011719 193.683594 282.457031 195.238281 C 281.898438 196.789062 281.304688 198.328125 280.675781 199.855469 C 280.042969 201.378906 279.375 202.886719 278.667969 204.378906 C 277.960938 205.871094 277.21875 207.347656 276.441406 208.800781 C 275.664062 210.257812 274.851562 211.691406 274.003906 213.109375 C 273.152344 214.523438 272.269531 215.917969 271.355469 217.289062 C 270.4375 218.664062 269.488281 220.011719 268.503906 221.335938 C 267.519531 222.664062 266.503906 223.964844 265.457031 225.238281 C 264.410156 226.515625 263.332031 227.765625 262.226562 228.988281 C 261.117188 230.210938 259.980469 231.40625 258.8125 232.574219 C 257.644531 233.738281 256.449219 234.878906 255.226562 235.984375 C 254.003906 237.09375 252.753906 238.171875 251.480469 239.21875 C 250.203125 240.265625 248.902344 241.28125 247.578125 242.265625 C 246.25 243.25 244.902344 244.199219 243.53125 245.113281 C 242.15625 246.03125 240.761719 246.914062 239.347656 247.761719 C 237.933594 248.613281 236.496094 249.425781 235.039062 250.203125 C 233.585938 250.980469 232.109375 251.722656 230.621094 252.429688 C 229.128906 253.132812 227.617188 253.804688 226.09375 254.433594 C 224.570312 255.066406 223.03125 255.660156 221.476562 256.214844 C 219.921875 256.773438 218.355469 257.289062 216.773438 257.769531 C 215.195312 258.25 213.605469 258.6875 212.003906 259.089844 C 210.402344 259.492188 208.792969 259.851562 207.175781 260.171875 C 205.554688 260.496094 203.929688 260.777344 202.296875 261.019531 C 200.664062 261.261719 199.027344 261.464844 197.386719 261.625 C 195.742188 261.789062 194.097656 261.910156 192.449219 261.988281 C 190.800781 262.070312 189.152344 262.113281 187.5 262.113281 C 185.847656 262.113281 184.199219 262.070312 182.550781 261.988281 C 180.902344 261.910156 179.257812 261.789062 177.613281 261.625 C 175.972656 261.464844 174.335938 261.261719 172.703125 261.019531 C 171.070312 260.777344 169.445312 260.496094 167.824219 260.171875 C 166.207031 259.851562 164.597656 259.492188 162.996094 259.089844 C 161.394531 258.6875 159.804688 258.25 158.222656 257.769531 C 156.644531 257.289062 155.078125 256.773438 153.523438 256.214844 C 151.96875 255.660156 150.429688 255.066406 148.90625 254.433594 C 147.382812 253.804688 145.871094 253.132812 144.378906 252.429688 C 142.886719 251.722656 141.414062 250.980469 139.960938 250.203125 C 138.503906 249.425781 137.066406 248.613281 135.652344 247.761719 C 134.238281 246.914062 132.84375 246.03125 131.46875 245.113281 C 130.097656 244.199219 128.75 243.25 127.421875 242.265625 C 126.097656 241.28125 124.796875 240.265625 123.519531 239.21875 C 122.246094 238.171875 120.996094 237.09375 119.773438 235.984375 C 118.550781 234.878906 117.355469 233.738281 116.1875 232.574219 C 115.019531 231.40625 113.882812 230.210938 112.773438 228.988281 C 111.664062 227.765625 110.589844 226.515625 109.542969 225.238281 C 108.492188 223.964844 107.480469 222.664062 106.496094 221.335938 C 105.511719 220.011719 104.5625 218.664062 103.644531 217.289062 C 102.730469 215.917969 101.847656 214.523438 100.996094 213.109375 C 100.148438 211.691406 99.335938 210.257812 98.558594 208.800781 C 97.78125 207.347656 97.039062 205.871094 96.332031 204.378906 C 95.625 202.886719 94.957031 201.378906 94.324219 199.855469 C 93.695312 198.328125 93.101562 196.789062 92.542969 195.238281 C 91.988281 193.683594 91.472656 192.117188 90.992188 190.535156 C 90.511719 188.957031 90.074219 187.367188 89.671875 185.765625 C 89.269531 184.164062 88.910156 182.554688 88.585938 180.9375 C 88.265625 179.316406 87.984375 177.691406 87.742188 176.058594 C 87.5 174.425781 87.296875 172.789062 87.132812 171.144531 C 86.972656 169.503906 86.851562 167.859375 86.769531 166.210938 C 86.691406 164.5625 86.648438 162.910156 86.648438 161.261719 C 86.648438 159.609375 86.691406 157.960938 86.769531 156.3125 C 86.851562 154.664062 86.972656 153.019531 87.132812 151.375 C 87.296875 149.734375 87.5 148.09375 87.742188 146.460938 C 87.984375 144.832031 88.265625 143.203125 88.585938 141.585938 C 88.910156 139.96875 89.269531 138.355469 89.671875 136.757812 C 90.074219 135.15625 90.511719 133.566406 90.992188 131.984375 C 91.472656 130.40625 91.988281 128.839844 92.542969 127.285156 C 93.101562 125.730469 93.695312 124.191406 94.324219 122.667969 C 94.957031 121.140625 95.625 119.632812 96.332031 118.140625 C 97.039062 116.648438 97.78125 115.175781 98.558594 113.71875 C 99.335938 112.265625 100.148438 110.828125 100.996094 109.414062 C 101.847656 107.996094 102.730469 106.601562 103.644531 105.230469 C 104.5625 103.859375 105.511719 102.507812 106.496094 101.183594 C 107.480469 99.859375 108.492188 98.558594 109.542969 97.28125 C 110.589844 96.003906 111.664062 94.757812 112.773438 93.535156 C 113.882812 92.308594 115.019531 91.117188 116.1875 89.949219 C 117.355469 88.78125 118.550781 87.644531 119.773438 86.535156 C 120.996094 85.425781 122.246094 84.347656 123.519531 83.300781 C 124.796875 82.253906 126.097656 81.238281 127.421875 80.257812 C 128.75 79.273438 130.097656 78.324219 131.46875 77.40625 C 132.84375 76.488281 134.238281 75.605469 135.652344 74.757812 C 137.066406 73.910156 138.503906 73.097656 139.960938 72.316406 C 141.414062 71.539062 142.886719 70.796875 144.378906 70.09375 C 145.871094 69.386719 147.382812 68.71875 148.90625 68.085938 C 150.429688 67.457031 151.96875 66.859375 153.523438 66.304688 C 155.078125 65.75 156.644531 65.230469 158.222656 64.753906 C 159.804688 64.273438 161.394531 63.832031 162.996094 63.433594 C 164.597656 63.03125 166.207031 62.667969 167.824219 62.347656 C 169.445312 62.027344 171.070312 61.742188 172.703125 61.5 C 174.335938 61.257812 175.972656 61.058594 177.613281 60.894531 C 179.257812 60.734375 180.902344 60.613281 182.550781 60.53125 C 184.199219 60.449219 185.847656 60.410156 187.5 60.410156 C 189.152344 60.410156 190.800781 60.449219 192.449219 60.53125 C 194.097656 60.613281 195.742188 60.734375 197.386719 60.894531 C 199.027344 61.058594 200.664062 61.257812 202.296875 61.5 C 203.929688 61.742188 205.554688 62.027344 207.175781 62.347656 C 208.792969 62.667969 210.402344 63.03125 212.003906 63.433594 C 213.605469 63.832031 215.195312 64.273438 216.773438 64.753906 C 218.355469 65.230469 219.921875 65.75 221.476562 66.304688 C 223.03125 66.859375 224.570312 67.457031 226.09375 68.085938 C 227.617188 68.71875 229.128906 69.386719 230.621094 70.09375 C 232.109375 70.796875 233.585938 71.539062 235.039062 72.316406 C 236.496094 73.097656 237.933594 73.910156 239.347656 74.757812 C 240.761719 75.605469 242.15625 76.488281 243.53125 77.40625 C 244.902344 78.324219 246.25 79.273438 247.578125 80.257812 C 248.902344 81.238281 250.203125 82.253906 251.480469 83.300781 C 252.753906 84.347656 254.003906 85.425781 255.226562 86.535156 C 256.449219 87.644531 257.644531 88.78125 258.8125 89.949219 C 259.980469 91.117188 261.117188 92.308594 262.226562 93.535156 C 263.332031 94.757812 264.410156 96.003906 265.457031 97.28125 C 266.503906 98.558594 267.519531 99.859375 268.503906 101.183594 C 269.488281 102.507812 270.4375 103.859375 271.355469 105.230469 C 272.269531 106.601562 273.152344 107.996094 274.003906 109.414062 C 274.851562 110.828125 275.664062 112.265625 276.441406 113.71875 C 277.21875 115.175781 277.960938 116.648438 278.667969 118.140625 C 279.375 119.632812 280.042969 121.140625 280.675781 122.667969 C 281.304688 124.191406 281.898438 125.730469 282.457031 127.285156 C 283.011719 128.839844 283.527344 130.40625 284.007812 131.984375 C 284.488281 133.566406 284.925781 135.15625 285.328125 136.757812 C 285.730469 138.355469 286.089844 139.96875 286.414062 141.585938 C 286.734375 143.203125 287.015625 144.832031 287.257812 146.460938 C 287.5 148.09375 287.703125 149.734375 287.863281 151.375 C 288.027344 153.019531 288.148438 154.664062 288.230469 156.3125 C 288.308594 157.960938 288.351562 159.609375 288.351562 161.261719 Z M 288.351562 161.261719 " fill-opacity="1" fill-rule="nonzero"/><g mask="url(#a832c80c8d)"><g transform="matrix(1, 0, 0, 1, 99, 73)"><g clip-path="url(#489284a198)"><g clip-path="url(#f71dd28e1e)"><path fill="#ffffff" d="M 176.257812 88.261719 C 176.257812 89.695312 176.222656 91.132812 176.152344 92.566406 C 176.082031 94 175.976562 95.433594 175.835938 96.863281 C 175.695312 98.292969 175.519531 99.71875 175.308594 101.136719 C 175.097656 102.558594 174.851562 103.972656 174.570312 105.382812 C 174.292969 106.789062 173.976562 108.191406 173.628906 109.585938 C 173.277344 110.976562 172.894531 112.359375 172.480469 113.734375 C 172.0625 115.109375 171.613281 116.472656 171.128906 117.824219 C 170.644531 119.179688 170.128906 120.515625 169.578125 121.84375 C 169.027344 123.171875 168.445312 124.484375 167.832031 125.78125 C 167.21875 127.082031 166.574219 128.363281 165.894531 129.628906 C 165.21875 130.894531 164.511719 132.144531 163.773438 133.378906 C 163.035156 134.609375 162.265625 135.824219 161.46875 137.015625 C 160.671875 138.210938 159.84375 139.382812 158.988281 140.539062 C 158.132812 141.691406 157.25 142.824219 156.339844 143.933594 C 155.425781 145.042969 154.488281 146.132812 153.523438 147.195312 C 152.558594 148.257812 151.570312 149.300781 150.554688 150.316406 C 149.539062 151.332031 148.5 152.320312 147.433594 153.285156 C 146.371094 154.25 145.285156 155.1875 144.171875 156.097656 C 143.0625 157.011719 141.929688 157.894531 140.777344 158.75 C 139.625 159.605469 138.449219 160.429688 137.253906 161.230469 C 136.0625 162.027344 134.847656 162.796875 133.617188 163.535156 C 132.382812 164.273438 131.136719 164.980469 129.867188 165.65625 C 128.601562 166.332031 127.320312 166.980469 126.019531 167.59375 C 124.722656 168.207031 123.410156 168.789062 122.082031 169.339844 C 120.757812 169.886719 119.417969 170.40625 118.066406 170.890625 C 116.710938 171.371094 115.347656 171.824219 113.976562 172.238281 C 112.601562 172.65625 111.214844 173.039062 109.824219 173.390625 C 108.429688 173.738281 107.03125 174.050781 105.621094 174.332031 C 104.210938 174.613281 102.796875 174.859375 101.375 175.070312 C 99.957031 175.28125 98.53125 175.457031 97.101562 175.597656 C 95.671875 175.738281 94.242188 175.84375 92.804688 175.914062 C 91.371094 175.984375 89.9375 176.019531 88.5 176.019531 C 87.0625 176.019531 85.628906 175.984375 84.195312 175.914062 C 82.757812 175.84375 81.328125 175.738281 79.898438 175.597656 C 78.46875 175.457031 77.042969 175.28125 75.625 175.070312 C 74.203125 174.859375 72.789062 174.613281 71.378906 174.332031 C 69.96875 174.050781 68.570312 173.738281 67.175781 173.390625 C 65.785156 173.039062 64.398438 172.65625 63.023438 172.238281 C 61.652344 171.824219 60.289062 171.371094 58.933594 170.890625 C 57.582031 170.40625 56.242188 169.886719 54.917969 169.339844 C 53.589844 168.789062 52.277344 168.207031 50.976562 167.59375 C 49.679688 166.980469 48.398438 166.332031 47.132812 165.65625 C 45.863281 164.980469 44.613281 164.273438 43.382812 163.535156 C 42.152344 162.796875 40.9375 162.027344 39.742188 161.230469 C 38.550781 160.429688 37.375 159.605469 36.222656 158.75 C 35.070312 157.894531 33.9375 157.011719 32.828125 156.097656 C 31.714844 155.1875 30.628906 154.25 29.566406 153.285156 C 28.5 152.320312 27.460938 151.332031 26.445312 150.316406 C 25.429688 149.300781 24.441406 148.257812 23.476562 147.195312 C 22.511719 146.132812 21.574219 145.042969 20.660156 143.933594 C 19.75 142.824219 18.867188 141.691406 18.011719 140.539062 C 17.15625 139.382812 16.328125 138.210938 15.53125 137.015625 C 14.734375 135.824219 13.964844 134.609375 13.226562 133.378906 C 12.488281 132.144531 11.78125 130.894531 11.105469 129.628906 C 10.425781 128.363281 9.78125 127.082031 9.167969 125.78125 C 8.554688 124.484375 7.972656 123.171875 7.421875 121.84375 C 6.871094 120.515625 6.355469 119.179688 5.871094 117.824219 C 5.386719 116.472656 4.9375 115.109375 4.519531 113.734375 C 4.105469 112.359375 3.71875 110.976562 3.371094 109.585938 C 3.023438 108.191406 2.707031 106.789062 2.429688 105.382812 C 2.148438 103.972656 1.902344 102.558594 1.691406 101.136719 C 1.480469 99.71875 1.304688 98.292969 1.164062 96.863281 C 1.023438 95.433594 0.917969 94 0.847656 92.566406 C 0.777344 91.132812 0.742188 89.695312 0.742188 88.261719 C 0.742188 86.824219 0.777344 85.390625 0.847656 83.953125 C 0.917969 82.519531 1.023438 81.089844 1.164062 79.660156 C 1.304688 78.230469 1.480469 76.804688 1.691406 75.382812 C 1.902344 73.964844 2.148438 72.546875 2.429688 71.140625 C 2.707031 69.730469 3.023438 68.332031 3.371094 66.9375 C 3.71875 65.542969 4.105469 64.160156 4.519531 62.785156 C 4.9375 61.410156 5.386719 60.046875 5.871094 58.695312 C 6.355469 57.34375 6.871094 56.003906 7.421875 54.675781 C 7.972656 53.351562 8.554688 52.039062 9.167969 50.738281 C 9.78125 49.441406 10.425781 48.160156 11.105469 46.890625 C 11.78125 45.625 12.488281 44.375 13.226562 43.144531 C 13.964844 41.910156 14.734375 40.699219 15.53125 39.503906 C 16.328125 38.3125 17.15625 37.136719 18.011719 35.984375 C 18.867188 34.828125 19.75 33.699219 20.660156 32.585938 C 21.574219 31.476562 22.511719 30.390625 23.476562 29.324219 C 24.441406 28.261719 25.429688 27.222656 26.445312 26.207031 C 27.460938 25.191406 28.5 24.199219 29.566406 23.234375 C 30.628906 22.273438 31.714844 21.332031 32.828125 20.421875 C 33.9375 19.511719 35.070312 18.628906 36.222656 17.773438 C 37.375 16.917969 38.550781 16.089844 39.742188 15.292969 C 40.9375 14.496094 42.152344 13.726562 43.382812 12.988281 C 44.613281 12.25 45.863281 11.542969 47.132812 10.863281 C 48.398438 10.1875 49.679688 9.542969 50.976562 8.929688 C 52.277344 8.3125 53.589844 7.730469 54.917969 7.183594 C 56.242188 6.632812 57.582031 6.117188 58.933594 5.632812 C 60.289062 5.148438 61.652344 4.699219 63.023438 4.28125 C 64.398438 3.863281 65.785156 3.480469 67.175781 3.132812 C 68.570312 2.785156 69.96875 2.46875 71.378906 2.1875 C 72.789062 1.910156 74.203125 1.664062 75.625 1.453125 C 77.042969 1.242188 78.46875 1.066406 79.898438 0.925781 C 81.328125 0.785156 82.757812 0.679688 84.195312 0.609375 C 85.628906 0.539062 87.0625 0.503906 88.5 0.503906 C 89.9375 0.503906 91.371094 0.539062 92.804688 0.609375 C 94.242188 0.679688 95.671875 0.785156 97.101562 0.925781 C 98.53125 1.066406 99.957031 1.242188 101.375 1.453125 C 102.796875 1.664062 104.210938 1.910156 105.621094 2.1875 C 107.03125 2.46875 108.429688 2.785156 109.824219 3.132812 C 111.214844 3.480469 112.601562 3.863281 113.976562 4.28125 C 115.347656 4.699219 116.710938 5.148438 118.066406 5.632812 C 119.417969 6.117188 120.757812 6.632812 122.082031 7.183594 C 123.410156 7.730469 124.722656 8.3125 126.019531 8.929688 C 127.320312 9.542969 128.601562 10.1875 129.867188 10.863281 C 131.136719 11.542969 132.382812 12.25 133.617188 12.988281 C 134.847656 13.726562 136.0625 14.496094 137.253906 15.292969 C 138.449219 16.089844 139.625 16.917969 140.777344 17.773438 C 141.929688 18.628906 143.0625 19.511719 144.171875 20.421875 C 145.285156 21.332031 146.371094 22.273438 147.433594 23.234375 C 148.5 24.199219 149.539062 25.191406 150.554688 26.207031 C 151.570312 27.222656 152.558594 28.261719 153.523438 29.324219 C 154.488281 30.390625 155.425781 31.476562 156.339844 32.585938 C 157.25 33.699219 158.132812 34.828125 158.988281 35.984375 C 159.84375 37.136719 160.671875 38.3125 161.46875 39.503906 C 162.265625 40.699219 163.035156 41.910156 163.773438 43.144531 C 164.511719 44.375 165.21875 45.625 165.894531 46.890625 C 166.574219 48.160156 167.21875 49.441406 167.832031 50.738281 C 168.445312 52.039062 169.027344 53.351562 169.578125 54.675781 C 170.128906 56.003906 170.644531 57.34375 171.128906 58.695312 C 171.613281 60.046875 172.0625 61.410156 172.480469 62.785156 C 172.894531 64.160156 173.277344 65.542969 173.628906 66.9375 C 173.976562 68.332031 174.292969 69.730469 174.570312 71.140625 C 174.851562 72.546875 175.097656 73.964844 175.308594 75.382812 C 175.519531 76.804688 175.695312 78.230469 175.835938 79.660156 C 175.976562 81.089844 176.082031 82.519531 176.152344 83.953125 C 176.222656 85.390625 176.257812 86.824219 176.257812 88.261719 Z M 176.257812 88.261719 " fill-opacity="1" fill-rule="nonzero"/></g></g></g></g><path fill="#ffffff" d="M 255.394531 108.179688 L 248.890625 109.3125 C 247.609375 109.539062 246.609375 110.535156 246.386719 111.816406 L 245.253906 118.324219 L 244.121094 111.816406 C 243.898438 110.535156 242.898438 109.539062 241.617188 109.3125 L 235.113281 108.179688 L 241.617188 107.050781 C 242.898438 106.824219 243.898438 105.828125 244.121094 104.546875 L 245.253906 98.039062 L 246.386719 104.546875 C 246.609375 105.824219 247.609375 106.824219 248.890625 107.050781 Z M 255.394531 108.179688 " fill-opacity="1" fill-rule="nonzero"/><path fill="#ffffff" d="M 147.125 94.898438 L 140.621094 96.03125 C 139.339844 96.257812 138.339844 97.253906 138.117188 98.535156 L 136.984375 105.042969 L 135.851562 98.535156 C 135.628906 97.253906 134.628906 96.257812 133.351562 96.03125 L 126.84375 94.898438 L 133.351562 93.769531 C 134.628906 93.542969 135.628906 92.546875 135.851562 91.265625 L 136.984375 84.757812 L 138.117188 91.265625 C 138.339844 92.546875 139.339844 93.542969 140.621094 93.769531 Z M 147.125 94.898438 " fill-opacity="1" fill-rule="nonzero"/><path fill="#ffffff" d="M 115.257812 120.816406 L 108.75 121.945312 C 107.472656 122.171875 106.472656 123.171875 106.246094 124.449219 L 105.117188 130.957031 L 103.984375 124.449219 C 103.757812 123.171875 102.761719 122.171875 101.480469 121.945312 L 94.976562 120.816406 L 101.480469 119.683594 C 102.761719 119.460938 103.757812 118.460938 103.984375 117.179688 L 105.117188 110.675781 L 106.246094 117.179688 C 106.472656 118.460938 107.472656 119.460938 108.75 119.683594 Z M 115.257812 120.816406 " fill-opacity="1" fill-rule="nonzero"/><path fill="#ffffff" d="M 245.25 84.757812 L 237.015625 86.191406 C 235.398438 86.472656 234.128906 87.742188 233.847656 89.359375 L 232.417969 97.59375 L 230.984375 89.359375 C 230.703125 87.742188 229.433594 86.472656 227.816406 86.191406 L 219.582031 84.757812 L 227.816406 83.328125 C 229.433594 83.046875 230.703125 81.777344 230.984375 80.160156 L 232.417969 71.925781 L 233.847656 80.160156 C 234.128906 81.777344 235.398438 83.046875 237.015625 83.328125 Z M 245.25 84.757812 " fill-opacity="1" fill-rule="nonzero"/><path fill="#ffffff" d="M 151.777344 129.160156 L 140.535156 131.121094 C 138.324219 131.5 136.597656 133.230469 136.210938 135.441406 L 134.253906 146.683594 L 132.292969 135.441406 C 131.914062 133.234375 130.183594 131.507812 127.972656 131.121094 L 116.730469 129.160156 L 127.972656 127.203125 C 130.179688 126.820312 131.90625 125.09375 132.292969 122.878906 L 134.253906 111.636719 L 136.210938 122.878906 C 136.59375 125.085938 138.320312 126.816406 140.535156 127.203125 Z M 151.777344 129.160156 " fill-opacity="1" fill-rule="nonzero"/><path fill="#ffffff" d="M 254.007812 144.628906 L 247.078125 145.832031 C 245.71875 146.066406 244.652344 147.132812 244.417969 148.496094 L 243.214844 155.421875 L 242.011719 148.496094 C 241.777344 147.132812 240.710938 146.066406 239.351562 145.832031 L 232.421875 144.628906 L 239.351562 143.425781 C 240.710938 143.191406 241.777344 142.125 242.011719 140.765625 L 243.214844 133.835938 L 244.417969 140.765625 C 244.652344 142.125 245.71875 143.191406 247.078125 143.425781 Z M 254.007812 144.628906 " fill-opacity="1" fill-rule="nonzero"/><g clip-path="url(#917d293a02)"><path fill="#ffffff" d="M 81.382812 159.421875 C 102.28125 155.605469 125.039062 166.039062 135.792969 184.355469 C 144.988281 181.679688 155.171875 184.265625 163.097656 189.636719 C 171.027344 195.011719 176.9375 202.914062 181.609375 211.277344 C 192.144531 196.25 213.058594 189.460938 230.414062 195.425781 C 228.261719 188.734375 230.21875 180.90625 235.265625 176.019531 C 240.3125 171.136719 248.207031 169.433594 254.820312 171.804688 C 255.359375 164.300781 259.164062 157.089844 265.050781 152.40625 C 270.941406 147.722656 278.820312 145.640625 286.253906 146.808594 C 291.792969 184.78125 274.109375 225.203125 242.460938 246.910156 C 210.816406 268.613281 166.734375 270.554688 133.304688 251.710938 C 99.867188 232.863281 81.640625 194.28125 81.382812 159.421875 Z M 81.382812 159.421875 " fill-opacity="1" fill-rule="nonzero"/></g><path fill="#1e2a38" d="M 88.933594 187.945312 C 96.742188 183.394531 106.570312 182.449219 115.109375 185.425781 C 123.648438 188.410156 130.746094 195.261719 134.027344 203.683594 C 150.425781 200.320312 168.535156 210.214844 174.554688 225.832031 C 189.867188 209.375 216.296875 204.53125 236.449219 214.488281 C 235.976562 207.105469 238.988281 199.570312 244.417969 194.546875 C 249.851562 189.527344 257.597656 187.113281 264.917969 188.164062 C 267.589844 177.015625 278.726562 168.515625 290.1875 168.886719 C 286.285156 188.664062 282.085938 209.148438 270.125 225.371094 C 254.558594 246.484375 228.277344 256.933594 202.546875 262.019531 C 186.746094 265.144531 170.09375 266.59375 154.742188 261.703125 C 142.480469 257.796875 131.765625 250.0625 122.316406 241.324219 C 106.597656 226.785156 93.441406 208.34375 88.933594 187.941406 Z M 88.933594 187.945312 " fill-opacity="1" fill-rule="nonzero"/><g mask="url(#76cdd00115)"><g transform="matrix(1, 0, 0, 1, 95, 201)"><g clip-path="url(#bda25513a5)"><g clip-path="url(#08d3b195eb)"><path fill="#101425" d="M 1.257812 7.609375 C 6.050781 3.632812 13.570312 3.402344 18.605469 7.078125 C 22.804688 2.484375 29.453125 0.269531 35.578125 1.417969 C 41.699219 2.570312 47.082031 7.054688 49.328125 12.867188 C 52.457031 8.894531 59.015625 9.378906 62.945312 12.558594 C 66.875 15.742188 68.796875 20.722656 70.4375 25.503906 C 75.1875 21.554688 81.914062 20.109375 87.867188 21.773438 C 93.816406 23.433594 98.820312 28.15625 100.832031 34 C 107.773438 21.570312 124.992188 16.152344 137.800781 22.375 C 138.921875 18.050781 142.117188 14.320312 146.214844 12.550781 C 150.316406 10.78125 155.230469 11.015625 159.140625 13.167969 C 163.28125 5.921875 173.226562 2.675781 180.847656 6.074219 C 171.847656 30.867188 151.617188 51.339844 126.925781 60.621094 C 102.234375 69.90625 73.527344 67.847656 50.417969 55.132812 C 30.65625 44.257812 15.675781 26.59375 1.257812 7.613281 Z M 1.257812 7.609375 " fill-opacity="1" fill-rule="nonzero"/></g></g></g></g><path fill="#ffffff" d="M 137.484375 252.757812 C 137.53125 249.199219 139.933594 245.78125 143.265625 244.539062 C 146.601562 243.292969 150.652344 244.304688 153.019531 246.964844 C 153.589844 244.097656 155.839844 241.636719 158.644531 240.8125 C 161.445312 239.984375 164.675781 240.832031 166.707031 242.925781 C 167.691406 240.269531 170.371094 238.332031 173.195312 238.230469 C 176.019531 238.128906 178.835938 239.855469 180.015625 242.433594 C 185.640625 237.195312 195.464844 237.433594 200.832031 242.929688 C 201.351562 240.265625 204.152344 238.261719 206.84375 238.617188 C 209.535156 238.980469 211.707031 241.652344 211.503906 244.359375 C 212.210938 242.21875 214.464844 240.699219 216.714844 240.835938 C 218.960938 240.972656 221.011719 242.769531 221.449219 244.976562 C 224.324219 242.636719 228.515625 242.035156 231.933594 243.472656 C 235.347656 244.914062 237.839844 248.335938 238.171875 252.027344 C 222.445312 260.167969 205.046875 265.53125 187.34375 265.773438 C 169.628906 266.011719 151.597656 260.878906 137.488281 252.75 Z M 137.484375 252.757812 " fill-opacity="1" fill-rule="nonzero"/><path fill="#101425" d="M 159.582031 275.277344 L 159.582031 260.429688 L 216.128906 260.429688 L 216.128906 275.277344 C 216.128906 287.164062 200.820312 286.929688 187.851562 296.800781 C 163.925781 279.757812 159.574219 287.164062 159.574219 275.277344 Z M 159.582031 275.277344 " fill-opacity="1" fill-rule="nonzero"/><g clip-path="url(#304467e343)"><path fill="#101425" d="M 187.5 267.601562 C 173.144531 267.601562 159.21875 264.789062 146.105469 259.246094 C 133.441406 253.886719 122.074219 246.226562 112.304688 236.457031 C 102.539062 226.691406 94.871094 215.320312 89.515625 202.65625 C 83.972656 189.542969 81.15625 175.617188 81.15625 161.261719 C 81.15625 146.902344 83.972656 132.980469 89.515625 119.867188 C 94.871094 107.203125 102.535156 95.832031 112.304688 86.066406 C 122.066406 76.300781 133.441406 68.632812 146.105469 63.273438 C 159.21875 57.726562 173.148438 54.917969 187.5 54.917969 C 201.851562 54.917969 215.78125 57.734375 228.894531 63.273438 C 241.558594 68.632812 252.925781 76.296875 262.695312 86.066406 C 272.460938 95.828125 280.128906 107.203125 285.484375 119.867188 C 291.03125 132.980469 293.839844 146.910156 293.839844 161.261719 C 293.839844 175.613281 291.027344 189.542969 285.484375 202.65625 C 280.128906 215.320312 272.464844 226.6875 262.695312 236.457031 C 252.933594 246.21875 241.558594 253.886719 228.894531 259.246094 C 215.78125 264.792969 201.851562 267.601562 187.5 267.601562 Z M 187.5 61.695312 C 174.054688 61.695312 161.019531 64.324219 148.742188 69.515625 C 136.886719 74.53125 126.238281 81.710938 117.089844 90.855469 C 107.945312 100.003906 100.765625 110.648438 95.75 122.507812 C 90.558594 134.78125 87.929688 147.820312 87.929688 161.265625 C 87.929688 174.710938 90.558594 187.746094 95.75 200.023438 C 100.765625 211.878906 107.945312 222.527344 117.089844 231.675781 C 126.238281 240.820312 136.882812 248 148.742188 253.015625 C 161.015625 258.207031 174.054688 260.835938 187.5 260.835938 C 200.945312 260.835938 213.980469 258.207031 226.257812 253.015625 C 238.113281 248 248.761719 240.820312 257.910156 231.675781 C 267.054688 222.527344 274.234375 211.882812 279.25 200.023438 C 284.441406 187.75 287.070312 174.710938 287.070312 161.265625 C 287.070312 147.820312 284.441406 134.785156 279.25 122.507812 C 274.234375 110.65625 267.054688 100.003906 257.910156 90.855469 C 248.761719 81.710938 238.117188 74.53125 226.257812 69.515625 C 213.984375 64.324219 200.945312 61.695312 187.5 61.695312 Z M 187.5 61.695312 " fill-opacity="1" fill-rule="nonzero"/></g><path fill="#ffffff" d="M 158.933594 69.710938 C 177.226562 64.753906 196.792969 64.59375 215.164062 69.253906 C 215.355469 44.203125 204.34375 19.269531 185.695312 2.539062 C 180.65625 4.71875 177.230469 9.441406 174.417969 14.148438 C 164.765625 30.292969 159.304688 48.917969 158.933594 69.703125 Z M 158.933594 69.710938 " fill-opacity="1" fill-rule="nonzero"/><path fill="#ffffff" d="M 215.996094 218.75 C 228.691406 232.988281 242.609375 246.136719 257.546875 258.003906 C 256.597656 242.238281 255.648438 226.472656 254.695312 210.710938 C 245.71875 197.128906 236.746094 183.539062 227.765625 169.957031 C 228.714844 151.824219 228.382812 133.628906 226.765625 115.542969 C 223.152344 110.164062 219.539062 104.78125 215.921875 99.402344 C 215.464844 139.269531 215.003906 179.136719 215.996094 218.753906 Z M 215.996094 218.75 " fill-opacity="1" fill-rule="nonzero"/><path fill="#ffffff" d="M 116.734375 260.046875 C 132.007812 246.070312 147.285156 232.097656 162.558594 218.128906 C 162.558594 220.101562 162.554688 222.078125 162.546875 224.050781 C 163.644531 182.050781 162.390625 139.992188 158.789062 98.132812 C 155.222656 104.117188 151.652344 110.105469 148.085938 116.09375 C 148.597656 115.34375 149.113281 114.59375 149.628906 113.847656 C 149.214844 115.652344 148.804688 117.457031 148.390625 119.253906 C 147.257812 138.257812 146.132812 157.253906 145 176.253906 C 145.203125 175.09375 145.40625 173.933594 145.613281 172.773438 C 136.535156 186.777344 127.457031 200.789062 118.382812 214.792969 C 118.933594 214.101562 119.476562 213.410156 120.027344 212.71875 C 118.992188 228.007812 117.964844 243.304688 116.738281 260.046875 Z M 116.734375 260.046875 " fill-opacity="1" fill-rule="nonzero"/><g mask="url(#da3550780f)"><g transform="matrix(1, 0, 0, 1, 167, 17)"><g clip-path="url(#64349440a6)"><g clip-path="url(#e7d7817b57)"><path fill="#101425" d="M 0.375 50.898438 C 3.28125 34.074219 8.773438 17.695312 16.578125 2.503906 C 17.699219 0.324219 20.816406 0.320312 21.9375 2.503906 C 29.453125 17.105469 34.839844 32.808594 37.859375 48.957031 C 25.0625 46.890625 11.828125 47.582031 0.375 50.90625 Z M 0.375 50.898438 " fill-opacity="1" fill-rule="nonzero"/></g></g></g></g><g mask="url(#4239dd8e0f)"><g transform="matrix(1, 0, 0, 1, 213, 106)"><g clip-path="url(#5b4ac24a23)"><g clip-path="url(#38cd0f2f16)"><g mask="url(#60d7dae7f8)"><g transform="matrix(1, 0, 0, 1, 6, 0)"><g clip-path="url(#237814d278)"><g clip-path="url(#8663747a2c)"><path fill="#101425" d="M 37.710938 151.453125 C 35.054688 136.160156 31.667969 120.992188 26.839844 106.335938 C 18.613281 93.15625 10.035156 80.195312 0.925781 66.253906 C 1.324219 44.320312 1.714844 22.386719 2.113281 0.453125 C 6.34375 5.25 6.988281 12.140625 7.429688 18.527344 C 8.496094 33.960938 9.5625 49.390625 10.628906 64.824219 C 10.265625 63.964844 9.902344 63.105469 9.542969 62.246094 C 9.792969 63.214844 10.042969 64.183594 10.292969 65.152344 L 8.644531 62.96875 C 14.238281 71.941406 19.835938 80.921875 25.429688 89.894531 C 28.953125 95.546875 32.515625 101.277344 34.472656 107.648438 C 36.332031 113.699219 36.675781 120.101562 37.007812 126.421875 C 37.445312 134.835938 37.882812 143.253906 37.714844 151.457031 Z M 37.710938 151.453125 " fill-opacity="1" fill-rule="nonzero"/></g></g></g></g></g><g clip-path="url(#f082c1662a)"><g mask="url(#363470d88a)"><g transform="matrix(1, 0, 0, 1, 0, 105)"><g clip-path="url(#f7e1053d33)"><g clip-path="url(#a86f4d0da2)"><path fill="#101425" d="M 1.207031 0.671875 C 8.394531 0.738281 15.582031 0.804688 23.425781 1.246094 C 27.230469 1.457031 30.484375 4.070312 31.5 7.75 L 41.441406 43.871094 C 27.320312 33.789062 14.441406 21.960938 3.195312 8.742188 C 2.386719 7.800781 1.578125 6.816406 1.179688 5.640625 C 0.613281 3.953125 0.984375 2.097656 1.199219 0.671875 Z M 1.207031 0.671875 " fill-opacity="1" fill-rule="nonzero"/></g></g></g></g></g></g></g></g><g mask="url(#de8680bea1)"><g transform="matrix(1, 0, 0, 1, 118, 108)"><g clip-path="url(#5bcb16e591)"><g clip-path="url(#8e2d92da73)"><g mask="url(#15c2bcc9c4)"><g transform="matrix(1, 0, 0, 1, -0.000000000000014211, 0)"><g clip-path="url(#0813c50f26)"><g clip-path="url(#73b6fde7df)"><path fill="#101425" d="M 0.441406 152.429688 C 3.097656 137.140625 6.484375 121.972656 11.3125 107.3125 C 19.539062 94.132812 28.117188 81.175781 37.226562 67.230469 C 36.828125 45.296875 36.4375 23.363281 36.039062 1.429688 C 31.808594 6.226562 31.164062 13.117188 30.722656 19.503906 C 29.65625 34.9375 28.589844 50.371094 27.523438 65.804688 C 27.886719 64.941406 28.25 64.085938 28.609375 63.222656 C 28.359375 64.191406 28.113281 65.160156 27.863281 66.128906 L 29.507812 63.945312 C 23.914062 72.921875 18.316406 81.898438 12.722656 90.871094 C 9.203125 96.527344 5.636719 102.257812 3.679688 108.625 C 1.820312 114.675781 1.476562 121.078125 1.144531 127.402344 C 0.707031 135.8125 0.269531 144.230469 0.4375 152.433594 Z M 0.441406 152.429688 " fill-opacity="1" fill-rule="nonzero"/></g></g></g></g></g><g clip-path="url(#86259c723c)"><g mask="url(#1464919200)"><g transform="matrix(1, 0, 0, 1, 2, 106)"><g clip-path="url(#353118856c)"><g clip-path="url(#2e235d043c)"><path fill="#101425" d="M 40.949219 0.644531 C 33.757812 0.710938 26.570312 0.777344 18.730469 1.214844 C 14.921875 1.429688 11.667969 4.042969 10.652344 7.722656 L 0.710938 43.84375 C 14.832031 33.757812 27.710938 21.929688 38.960938 8.714844 C 39.765625 7.773438 40.574219 6.789062 40.972656 5.613281 C 41.539062 3.925781 41.167969 2.066406 40.953125 0.644531 Z M 40.949219 0.644531 " fill-opacity="1" fill-rule="nonzero"/></g></g></g></g></g></g></g></g><path fill="#ffffff" d="M 239.351562 219.371094 C 239.351562 219.730469 239.28125 220.074219 239.144531 220.402344 C 239.007812 220.730469 238.8125 221.023438 238.5625 221.277344 C 238.308594 221.527344 238.019531 221.722656 237.6875 221.859375 C 237.359375 221.996094 237.015625 222.0625 236.660156 222.0625 C 236.300781 222.0625 235.957031 221.996094 235.628906 221.859375 C 235.296875 221.722656 235.007812 221.527344 234.753906 221.277344 C 234.503906 221.023438 234.308594 220.730469 234.171875 220.402344 C 234.035156 220.074219 233.964844 219.730469 233.964844 219.371094 C 233.964844 219.015625 234.035156 218.671875 234.171875 218.339844 C 234.308594 218.011719 234.503906 217.722656 234.753906 217.46875 C 235.007812 217.214844 235.296875 217.023438 235.628906 216.886719 C 235.957031 216.75 236.300781 216.679688 236.660156 216.679688 C 237.015625 216.679688 237.359375 216.75 237.6875 216.886719 C 238.019531 217.023438 238.308594 217.214844 238.5625 217.46875 C 238.8125 217.722656 239.007812 218.011719 239.144531 218.339844 C 239.28125 218.671875 239.351562 219.015625 239.351562 219.371094 Z M 239.351562 219.371094 " fill-opacity="1" fill-rule="nonzero"/><path fill="#ffffff" d="M 144.304688 220.910156 C 144.304688 221.269531 144.238281 221.613281 144.101562 221.941406 C 143.964844 222.273438 143.769531 222.5625 143.519531 222.816406 C 143.265625 223.066406 142.972656 223.261719 142.644531 223.398438 C 142.316406 223.535156 141.972656 223.605469 141.613281 223.605469 C 141.257812 223.605469 140.914062 223.535156 140.585938 223.398438 C 140.253906 223.261719 139.964844 223.066406 139.710938 222.816406 C 139.457031 222.5625 139.265625 222.273438 139.128906 221.941406 C 138.992188 221.613281 138.921875 221.269531 138.921875 220.910156 C 138.921875 220.554688 138.992188 220.210938 139.128906 219.882812 C 139.265625 219.550781 139.457031 219.261719 139.710938 219.007812 C 139.964844 218.753906 140.253906 218.5625 140.585938 218.425781 C 140.914062 218.289062 141.257812 218.21875 141.613281 218.21875 C 141.972656 218.21875 142.316406 218.289062 142.644531 218.425781 C 142.972656 218.5625 143.265625 218.753906 143.519531 219.007812 C 143.769531 219.261719 143.964844 219.550781 144.101562 219.882812 C 144.238281 220.210938 144.304688 220.554688 144.304688 220.910156 Z M 144.304688 220.910156 " fill-opacity="1" fill-rule="nonzero"/><path fill="#ffffff" d="M 170.640625 67.273438 C 174.066406 52.273438 178.632812 37.535156 184.292969 23.226562 C 183.253906 31.925781 182.472656 40.714844 183.300781 49.433594 C 184.03125 40.78125 184.765625 32.125 185.496094 23.472656 C 185.691406 32.390625 185.882812 41.304688 186.074219 50.222656 C 186.683594 40.402344 187.011719 30.5625 187.046875 20.722656 C 191.398438 27.402344 194.277344 34.957031 196.292969 42.671875 C 198.3125 50.386719 199.5 58.289062 200.679688 66.175781 C 190.828125 65.386719 180.886719 65.753906 170.632812 67.277344 Z M 170.640625 67.273438 " fill-opacity="1" fill-rule="nonzero"/><path fill="#1e2a38" d="M 165.082031 235.261719 C 181.050781 238.050781 197.488281 238.167969 213.496094 235.609375 C 214.976562 179.140625 216.453125 122.675781 217.925781 66.207031 C 198.042969 63.5 177.632812 64.691406 158.199219 69.683594 C 159.210938 119.382812 160.21875 169.082031 161.226562 218.78125 C 161.34375 224.566406 161.484375 230.472656 165.082031 235.261719 Z M 165.082031 235.261719 " fill-opacity="1" fill-rule="nonzero"/><g mask="url(#eef86ccd64)"><g transform="matrix(1, 0, 0, 1, 157, 64)"><g clip-path="url(#03462d6341)"><g clip-path="url(#9dad836584)"><path fill="#ffffff" d="M 8.082031 171.261719 C 24.050781 174.050781 40.488281 174.167969 56.496094 171.609375 C 57.976562 115.140625 59.453125 58.675781 60.925781 2.207031 C 41.042969 -0.5 20.632812 0.691406 1.199219 5.683594 C 2.210938 55.382812 3.21875 105.082031 4.226562 154.78125 C 4.34375 160.566406 4.484375 166.472656 8.082031 171.261719 Z M 8.082031 171.261719 " fill-opacity="1" fill-rule="nonzero"/></g></g></g></g><g mask="url(#f047818e5a)"><g transform="matrix(1, 0, 0, 1, 161, 64)"><g clip-path="url(#c94046ca67)"><g clip-path="url(#17e3b0148c)"><path fill="#ffffff" d="M 0.441406 5.085938 C 1.574219 40.828125 2.707031 76.570312 3.835938 112.3125 C 4.070312 119.75 4.3125 127.230469 5.816406 134.515625 C 6.332031 137.027344 7.308594 139.867188 9.722656 140.734375 C 12.011719 141.558594 14.617188 140.078125 15.878906 137.996094 C 17.144531 135.917969 17.394531 133.398438 17.609375 130.972656 C 19.734375 107.257812 21.859375 83.546875 23.980469 59.839844 C 24.695312 80.996094 25.414062 102.15625 26.128906 123.308594 C 27.71875 102.984375 29.3125 82.667969 30.90625 62.347656 C 32.144531 93.636719 33.382812 124.929688 34.617188 156.21875 C 35.828125 131.25 37.042969 106.285156 38.257812 81.316406 C 39.378906 111.761719 40.5 142.199219 41.621094 172.640625 C 45.464844 174.367188 50.144531 171.777344 52.191406 168.085938 C 54.234375 164.402344 54.332031 159.984375 54.378906 155.769531 C 54.929688 105.503906 55.480469 55.246094 56.03125 4.980469 C 36.730469 -1.136719 15.1875 0.140625 0.433594 5.078125 Z M 0.441406 5.085938 " fill-opacity="1" fill-rule="nonzero"/></g></g></g></g><path fill="#ffffff" d="M 166.917969 69.058594 C 166.339844 102.6875 166.984375 136.339844 168.855469 169.921875 C 170.824219 149.882812 172.785156 129.839844 174.753906 109.796875 C 173.503906 134.796875 172.25 159.792969 171 184.789062 C 174.25 152.859375 177.496094 120.933594 180.746094 89 C 180.25 103.964844 179.753906 118.933594 179.261719 133.898438 C 181 119.605469 182.738281 105.316406 184.476562 91.03125 C 186.410156 104.945312 187.136719 119.027344 186.660156 133.066406 C 187.1875 122.21875 187.71875 111.363281 188.25 100.511719 C 188.214844 111.816406 188.179688 123.125 188.140625 134.429688 C 189.578125 120.449219 191.011719 106.46875 192.449219 92.484375 C 195.246094 109.355469 196.710938 126.449219 196.824219 143.550781 C 198.304688 128.800781 199.777344 114.050781 201.253906 99.296875 C 202.613281 139.175781 203.960938 179.058594 205.320312 218.9375 C 207.882812 168.644531 209.46875 118.296875 210.074219 67.933594 C 194.488281 64.207031 177.875 64.90625 166.929688 69.046875 Z M 166.917969 69.058594 " fill-opacity="1" fill-rule="nonzero"/><path fill="#1e2a38" d="M 187.847656 88.609375 C 179.949219 88.832031 172.386719 93.917969 169.203125 101.144531 C 167.222656 105.636719 166.882812 110.835938 168.289062 115.542969 C 169.695312 120.25 172.835938 124.414062 176.988281 127.039062 C 184.214844 131.613281 194.363281 130.964844 200.945312 125.507812 C 207.53125 120.046875 210.042969 110.195312 206.882812 102.242188 C 203.722656 94.292969 195.132812 88.855469 187.847656 88.609375 Z M 187.847656 88.609375 " fill-opacity="1" fill-rule="nonzero"/><g mask="url(#624dfeba0a)"><g transform="matrix(1, 0, 0, 1, 170, 92)"><g clip-path="url(#47c232c031)"><g clip-path="url(#4ee260f520)"><path fill="#ffffff" d="M 13.46875 1.769531 C 7.777344 4.457031 2.476562 9.023438 1.132812 15.171875 C 0.179688 19.519531 1.417969 24.257812 4.246094 27.699219 C 7.070312 31.140625 11.386719 33.265625 15.828125 33.570312 C 20.269531 33.878906 24.78125 32.414062 28.304688 29.691406 C 30.953125 27.644531 33.085938 24.847656 34.019531 21.636719 C 35.070312 18.023438 34.523438 14.023438 32.796875 10.679688 C 31.066406 7.335938 28.195312 4.640625 24.882812 2.859375 C 21.371094 0.972656 16.953125 0.132812 13.472656 1.773438 Z M 13.46875 1.769531 " fill-opacity="1" fill-rule="nonzero"/></g></g></g></g><path fill="#ffffff" d="M 171.628906 113.246094 C 179.183594 107.226562 186.664062 101.117188 194.054688 94.898438 C 196.691406 95.15625 198.78125 97.160156 200.644531 99.046875 C 192.394531 105.328125 184.398438 111.949219 176.695312 118.886719 C 176.269531 119.277344 175.761719 119.6875 175.1875 119.644531 C 174.621094 119.597656 174.199219 119.117188 173.871094 118.660156 C 172.636719 116.910156 171.890625 114.828125 171.628906 113.25 Z M 171.628906 113.246094 " fill-opacity="1" fill-rule="nonzero"/><path fill="#ffffff" d="M 179.078125 122.941406 C 186.894531 116.222656 194.648438 109.421875 202.324219 102.546875 C 203.40625 104.828125 203.972656 107.355469 203.960938 109.878906 C 198.6875 114.71875 193.410156 119.554688 188.132812 124.394531 C 187.53125 124.945312 186.867188 125.527344 186.050781 125.609375 C 185.507812 125.660156 184.972656 125.476562 184.449219 125.296875 C 183.039062 124.800781 181.625 124.308594 180.214844 123.8125 C 179.4375 123.542969 178.652344 123.308594 179.082031 122.941406 Z M 179.078125 122.941406 " fill-opacity="1" fill-rule="nonzero"/><path fill="#101425" d="M 164.75 236.996094 L 211.375 236.996094 L 211.375 259.847656 L 164.75 259.847656 Z M 164.75 236.996094 " fill-opacity="1" fill-rule="nonzero"/><path fill="#101425" d="M 211.375 269.066406 L 164.75 269.066406 L 164.75 259.84375 L 211.375 259.84375 Z M 211.375 269.066406 " fill-opacity="1" fill-rule="nonzero"/><path fill="#101425" d="M 164.75 259.847656 L 164.75 276.117188 C 164.75 279.863281 167.484375 278.847656 171.542969 282.90625 C 175.472656 278.976562 178.332031 279.871094 178.332031 276.117188 L 178.332031 259.847656 C 178.332031 259.847656 164.757812 259.847656 164.757812 259.847656 Z M 164.75 259.847656 " fill-opacity="1" fill-rule="nonzero"/><path fill="#101425" d="M 197.796875 260.230469 L 197.796875 276.5 C 197.796875 280.246094 200.53125 279.230469 204.589844 283.289062 C 208.519531 279.359375 211.378906 280.25 211.378906 276.5 L 211.378906 260.230469 C 211.378906 260.230469 197.804688 260.230469 197.804688 260.230469 Z M 197.796875 260.230469 " fill-opacity="1" fill-rule="nonzero"/><path fill="#ffffff" d="M 181.273438 259.847656 L 181.273438 281.988281 C 181.273438 287.09375 184.007812 285.710938 188.066406 291.226562 C 191.996094 285.878906 194.855469 287.09375 194.855469 281.988281 L 194.855469 259.847656 C 194.855469 259.847656 181.28125 259.847656 181.28125 259.847656 Z M 181.273438 259.847656 " fill-opacity="1" fill-rule="nonzero"/><g mask="url(#5d065ebf7b)"><g transform="matrix(1, 0, 0, 1, 164, 248)"><g clip-path="url(#39bbcb5506)"><g clip-path="url(#c0a09e2f63)"><path fill="#ffffff" d="M 0.75 0.421875 L 47.375 0.421875 L 47.375 11.847656 L 0.75 11.847656 Z M 0.75 0.421875 " fill-opacity="1" fill-rule="nonzero"/></g></g></g></g><path fill="#ffffff" d="M 187.300781 268.964844 C 180.304688 242.808594 180.832031 214.679688 188.808594 188.808594 C 194.871094 215.1875 194.363281 243.042969 187.300781 268.964844 Z M 187.300781 268.964844 " fill-opacity="1" fill-rule="nonzero"/><g mask="url(#aa1044037f)"><g transform="matrix(1, 0, 0, 1, 183, 200)"><g clip-path="url(#2d39773d66)"><g clip-path="url(#09ce661c4a)"><path fill="#101425" d="M 4.6875 69.214844 C -0.359375 47.667969 -1.03125 25.113281 2.71875 3.300781 C 2.195312 11.578125 2.234375 19.890625 2.835938 28.160156 C 2.859375 21.371094 3.261719 14.585938 4.042969 7.839844 C 4.113281 14.425781 4.183594 21.007812 4.253906 27.59375 C 4.433594 20.835938 4.613281 14.074219 4.789062 7.3125 C 4.964844 15.3125 5.132812 23.3125 5.304688 31.316406 C 5.40625 21.050781 5.515625 10.785156 5.617188 0.519531 C 10.144531 23.390625 10.085938 47.15625 4.683594 69.214844 Z M 4.6875 69.214844 " fill-opacity="1" fill-rule="nonzero"/></g></g></g></g><g mask="url(#c4f220f4e0)"><g transform="matrix(1, 0, 0, 1, 183, 210)"><g clip-path="url(#084fd90798)"><g clip-path="url(#ee20d9e6b6)"><path fill="#101425" d="M 4.027344 56.835938 C 0.910156 43.183594 -0.0976562 29.050781 1.042969 15.09375 C 1.421875 19.914062 1.804688 24.742188 2.179688 29.566406 C 2.265625 26.878906 2.359375 24.191406 2.445312 21.507812 C 2.785156 25.691406 3.128906 29.882812 3.46875 34.070312 C 2.910156 29.980469 2.976562 25.808594 3.664062 21.742188 C 3.726562 26.996094 3.785156 32.253906 3.851562 37.511719 C 4.386719 30.300781 4.929688 23.089844 5.464844 15.878906 C 5.550781 22.855469 5.636719 29.835938 5.722656 36.816406 C 5.859375 26.992188 6.382812 17.171875 7.273438 7.390625 C 7.289062 12.820312 7.304688 18.25 7.320312 23.679688 C 7.585938 16.253906 7.847656 8.828125 8.113281 1.402344 C 10.316406 20.378906 9.226562 39.738281 4.03125 56.835938 Z M 4.027344 56.835938 " fill-opacity="1" fill-rule="nonzero"/></g></g></g></g><path fill="#101425" d="M 218.335938 68.5 C 218.226562 67.777344 217.691406 67.1875 216.980469 67.015625 C 196.308594 62.066406 177.28125 62.695312 157.109375 68.996094 C 156.339844 69.234375 155.824219 69.960938 155.855469 70.765625 C 156.53125 91.128906 157.300781 111.410156 158.050781 131.027344 C 159.339844 165.003906 160.683594 200.136719 161.511719 235.378906 C 161.535156 236.277344 162.210938 237.023438 163.105469 237.121094 C 164.625 237.292969 166.144531 237.476562 167.671875 237.664062 C 172.253906 238.21875 176.894531 238.777344 181.773438 239.101562 C 182.539062 239.160156 183.308594 239.199219 184.085938 239.242188 C 184.039062 238.046875 184.007812 236.84375 183.988281 235.636719 C 183.210938 235.59375 182.441406 235.550781 181.675781 235.5 C 176.988281 235.175781 172.515625 234.636719 168.09375 234.101562 C 167.082031 233.980469 166.066406 233.855469 165.058594 233.738281 C 164.992188 231.101562 164.925781 228.472656 164.859375 225.835938 C 164.824219 224.628906 164.792969 223.421875 164.761719 222.210938 C 163.925781 191.339844 162.761719 160.667969 161.625 130.890625 C 160.898438 111.714844 160.140625 91.90625 159.472656 72.015625 C 178.089844 66.421875 195.742188 65.835938 214.800781 70.1875 C 214.847656 76.832031 214.378906 108.4375 213.582031 152.078125 C 213.046875 181.347656 212.523438 207.59375 212.1875 222.335938 C 212.15625 223.632812 212.125 224.84375 212.097656 225.960938 C 212.011719 229.488281 211.945312 232.0625 211.894531 233.5 C 205.269531 234.898438 199.265625 235.550781 193.683594 235.742188 C 192.902344 235.773438 192.140625 235.789062 191.375 235.800781 C 191.324219 236.996094 191.261719 238.195312 191.191406 239.394531 C 191.957031 239.382812 192.71875 239.367188 193.5 239.34375 C 199.714844 239.148438 206.445312 238.398438 213.984375 236.714844 L 213.984375 236.707031 C 214.109375 236.679688 214.230469 236.640625 214.351562 236.585938 C 214.351562 236.585938 214.46875 236.527344 214.46875 236.527344 C 214.996094 236.230469 215.320312 235.707031 215.382812 235.140625 L 215.410156 235.140625 C 215.605469 233.339844 216.472656 190.835938 217.183594 151.757812 C 217.625 127.386719 218.625 70.496094 218.339844 68.492188 Z M 218.335938 68.5 " fill-opacity="1" fill-rule="nonzero"/><path fill="#101425" d="M 117.019531 262.339844 C 116.746094 262.339844 116.46875 262.28125 116.214844 262.152344 C 115.5625 261.824219 115.175781 261.132812 115.230469 260.402344 C 116.144531 249.058594 117.097656 237.734375 118.019531 226.78125 C 118.425781 221.929688 118.828125 217.140625 119.222656 212.441406 C 119.242188 212.1875 119.320312 211.945312 119.441406 211.71875 C 127.738281 196.828125 136.167969 183.417969 145.203125 170.738281 C 145.421875 149.039062 145.933594 132.328125 146.855469 116.613281 C 146.875 116.296875 146.976562 115.992188 147.152344 115.730469 L 157.234375 100.46875 C 157.78125 99.640625 158.894531 99.414062 159.71875 99.957031 C 160.542969 100.503906 160.773438 101.613281 160.230469 102.441406 L 150.410156 117.300781 C 149.5 132.953125 149.003906 149.648438 148.789062 171.335938 C 148.789062 171.703125 148.664062 172.058594 148.453125 172.359375 C 139.4375 184.96875 131.03125 198.304688 122.761719 213.125 C 122.378906 217.703125 121.984375 222.363281 121.589844 227.082031 C 120.78125 236.605469 119.957031 246.410156 119.15625 256.257812 C 133.359375 243.695312 147.507812 230.761719 161.265625 217.753906 C 161.984375 217.078125 163.121094 217.109375 163.796875 217.828125 C 164.476562 218.546875 164.445312 219.683594 163.726562 220.359375 C 148.863281 234.414062 133.542969 248.382812 118.191406 261.886719 C 117.855469 262.183594 117.433594 262.335938 117.011719 262.335938 Z M 117.019531 262.339844 " fill-opacity="1" fill-rule="nonzero"/><path fill="#101425" d="M 257.980469 260.308594 C 257.550781 260.308594 257.128906 260.152344 256.796875 259.859375 C 242.964844 247.6875 229.820312 235.652344 212.84375 219.601562 C 212.125 218.921875 212.09375 217.785156 212.773438 217.066406 C 213.449219 216.347656 214.585938 216.316406 215.304688 216.996094 C 230.882812 231.71875 243.226562 243.0625 255.839844 254.230469 C 255.039062 244.371094 254.207031 234.554688 253.40625 225.027344 C 253.007812 220.316406 252.617188 215.664062 252.234375 211.097656 C 243.964844 196.28125 235.5625 182.945312 226.542969 170.332031 C 226.328125 170.03125 226.210938 169.671875 226.207031 169.304688 C 225.992188 147.617188 225.492188 130.925781 224.585938 115.273438 L 214.765625 100.410156 C 214.21875 99.585938 214.445312 98.472656 215.277344 97.929688 C 216.101562 97.382812 217.214844 97.613281 217.757812 98.4375 L 227.84375 113.703125 C 228.015625 113.96875 228.117188 114.269531 228.140625 114.585938 C 229.058594 130.296875 229.566406 147.011719 229.789062 168.710938 C 238.832031 181.390625 247.261719 194.804688 255.554688 209.691406 C 255.675781 209.914062 255.75 210.160156 255.773438 210.414062 C 256.164062 215.105469 256.566406 219.886719 256.976562 224.726562 C 257.898438 235.6875 258.855469 247.019531 259.769531 258.375 C 259.824219 259.105469 259.4375 259.792969 258.785156 260.125 C 258.53125 260.25 258.253906 260.3125 257.980469 260.3125 Z M 257.980469 260.308594 " fill-opacity="1" fill-rule="nonzero"/><path fill="#101425" d="M 187.765625 126.347656 C 178.230469 126.347656 170.472656 118.703125 170.472656 109.3125 C 170.472656 99.921875 178.230469 92.28125 187.765625 92.28125 C 197.300781 92.28125 205.058594 99.921875 205.058594 109.3125 C 205.058594 118.703125 197.300781 126.347656 187.765625 126.347656 Z M 187.765625 94.070312 C 179.21875 94.070312 172.265625 100.90625 172.265625 109.3125 C 172.265625 117.71875 179.21875 124.558594 187.765625 124.558594 C 196.308594 124.558594 203.265625 117.71875 203.265625 109.3125 C 203.265625 100.90625 196.308594 94.070312 187.765625 94.070312 Z M 187.765625 94.070312 " fill-opacity="1" fill-rule="nonzero"/><path fill="#101425" d="M 187.765625 130.957031 C 175.96875 130.957031 166.371094 121.359375 166.371094 109.5625 C 166.371094 97.765625 175.96875 88.171875 187.765625 88.171875 C 199.5625 88.171875 209.15625 97.765625 209.15625 109.5625 C 209.15625 121.359375 199.5625 130.957031 187.765625 130.957031 Z M 187.765625 89.964844 C 176.957031 89.964844 168.167969 98.753906 168.167969 109.5625 C 168.167969 120.371094 176.957031 129.160156 187.765625 129.160156 C 198.574219 129.160156 207.363281 120.371094 207.363281 109.5625 C 207.363281 98.753906 198.574219 89.964844 187.765625 89.964844 Z M 187.765625 89.964844 " fill-opacity="1" fill-rule="nonzero"/><path fill="#101425" d="M 184.207031 223.640625 C 184.140625 224.835938 184.09375 226.03125 184.054688 227.21875 C 183.285156 227.203125 182.519531 227.175781 181.75 227.152344 C 176.105469 226.949219 170.472656 226.515625 164.859375 225.835938 C 164.460938 225.789062 164.0625 225.738281 163.660156 225.6875 C 162.675781 225.566406 161.976562 224.667969 162.105469 223.683594 C 162.226562 222.707031 163.125 222.007812 164.109375 222.128906 C 164.328125 222.160156 164.542969 222.1875 164.761719 222.210938 C 170.449219 222.910156 176.171875 223.363281 181.898438 223.566406 C 182.667969 223.597656 183.429688 223.617188 184.203125 223.640625 Z M 184.207031 223.640625 " fill-opacity="1" fill-rule="nonzero"/><path fill="#101425" d="M 212.707031 225.886719 C 212.507812 225.914062 212.304688 225.933594 212.105469 225.960938 C 206.042969 226.65625 199.945312 227.082031 193.84375 227.222656 C 193.074219 227.242188 192.308594 227.257812 191.539062 227.269531 C 191.53125 226.070312 191.515625 224.878906 191.488281 223.683594 C 192.257812 223.675781 193.019531 223.660156 193.792969 223.640625 C 199.941406 223.492188 206.082031 223.058594 212.191406 222.339844 C 212.222656 222.339844 212.253906 222.328125 212.28125 222.328125 C 213.265625 222.210938 214.160156 222.914062 214.277344 223.898438 C 214.394531 224.882812 213.691406 225.777344 212.707031 225.894531 Z M 212.707031 225.886719 " fill-opacity="1" fill-rule="nonzero"/><path fill="#101425" d="M 158.210938 87.644531 C 157.550781 87.644531 156.917969 87.285156 156.605469 86.652344 C 156.160156 85.765625 156.523438 84.6875 157.402344 84.246094 C 165.660156 80.121094 175.542969 78.230469 186.804688 78.625 C 196.761719 78.976562 206.347656 80.976562 216.101562 83.179688 C 217.070312 83.398438 217.675781 84.355469 217.457031 85.320312 C 217.238281 86.289062 216.28125 86.890625 215.316406 86.675781 C 205.738281 84.515625 196.335938 82.550781 186.683594 82.210938 C 176.035156 81.839844 166.71875 83.601562 159.011719 87.457031 C 158.753906 87.585938 158.480469 87.644531 158.210938 87.644531 Z M 158.210938 87.644531 " fill-opacity="1" fill-rule="nonzero"/><path fill="#101425" d="M 157.71875 74.84375 C 157.71875 74.84375 157.699219 74.84375 157.695312 74.84375 C 156.707031 74.828125 155.914062 74.011719 155.929688 73.023438 C 156.132812 59.855469 158.804688 46.800781 163.878906 34.234375 C 168.878906 21.847656 175.957031 10.539062 184.910156 0.632812 C 185.230469 0.273438 185.679688 0.0664062 186.160156 0.0390625 C 186.636719 0.0195312 187.101562 0.1875 187.453125 0.515625 C 196.792969 9.113281 204.554688 19.945312 209.898438 31.839844 C 215.253906 43.769531 218.183594 56.765625 218.355469 69.417969 C 218.367188 70.148438 217.933594 70.8125 217.265625 71.097656 C 216.851562 71.269531 216.398438 71.28125 215.988281 71.140625 C 215.777344 71.089844 215.382812 70.988281 215.03125 70.636719 C 214.433594 70.046875 214.34375 69.136719 214.753906 68.445312 C 214.144531 44.703125 203.605469 20.964844 186.363281 4.402344 C 178.261719 13.667969 171.828125 24.148438 167.214844 35.582031 C 162.308594 47.742188 159.71875 60.359375 159.523438 73.085938 C 159.511719 74.0625 158.710938 74.847656 157.730469 74.847656 Z M 215.304688 70.71875 Z M 215.304688 70.71875 Z M 215.304688 70.71875 Z M 215.304688 70.71875 Z M 215.304688 70.71875 " fill-opacity="1" fill-rule="nonzero"/><path fill="#101425" d="M 193.792969 223.640625 C 193.496094 211.34375 191.964844 199.21875 189.199219 187.332031 C 189.074219 186.808594 188.613281 186.441406 188.074219 186.441406 L 188.070312 186.441406 C 187.53125 186.441406 187.066406 186.820312 186.949219 187.34375 C 184.171875 199.871094 182.488281 211.957031 181.898438 223.566406 C 181.835938 224.765625 181.785156 225.964844 181.75 227.152344 C 181.65625 229.960938 181.636719 232.746094 181.671875 235.5 C 181.691406 236.707031 181.722656 237.90625 181.769531 239.101562 C 182.1875 250.636719 183.773438 261.628906 186.527344 272.023438 C 186.660156 272.527344 187.117188 272.878906 187.644531 272.878906 L 187.664062 272.878906 C 188.191406 272.867188 188.648438 272.503906 188.769531 271.988281 C 191.277344 261.027344 192.859375 250.128906 193.503906 239.34375 C 193.582031 238.140625 193.644531 236.941406 193.6875 235.742188 C 193.804688 232.894531 193.859375 230.054688 193.847656 227.222656 C 193.84375 226.023438 193.820312 224.832031 193.796875 223.640625 Z M 191.191406 239.394531 C 190.640625 248.390625 189.433594 257.472656 187.570312 266.601562 C 185.601562 257.886719 184.441406 248.753906 184.085938 239.246094 C 184.039062 238.050781 184.007812 236.847656 183.988281 235.640625 C 183.941406 232.867188 183.960938 230.058594 184.054688 227.222656 C 184.09375 226.035156 184.140625 224.84375 184.207031 223.644531 C 184.707031 213.816406 186 203.628906 188.097656 193.121094 C 190.109375 203.160156 191.242188 213.359375 191.488281 223.683594 C 191.515625 224.878906 191.53125 226.078125 191.539062 227.269531 C 191.554688 230.105469 191.496094 232.945312 191.375 235.800781 C 191.324219 236.996094 191.261719 238.195312 191.191406 239.394531 Z M 191.191406 239.394531 " fill-opacity="1" fill-rule="nonzero"/><path fill="#ffffff" d="M 266.738281 132.644531 C 266.738281 133.105469 266.652344 133.550781 266.472656 133.976562 C 266.296875 134.402344 266.046875 134.78125 265.71875 135.105469 C 265.390625 135.433594 265.015625 135.683594 264.589844 135.859375 C 264.164062 136.039062 263.71875 136.125 263.257812 136.125 C 262.792969 136.125 262.351562 136.039062 261.925781 135.859375 C 261.496094 135.683594 261.121094 135.433594 260.792969 135.105469 C 260.46875 134.78125 260.214844 134.402344 260.039062 133.976562 C 259.863281 133.550781 259.773438 133.105469 259.773438 132.644531 C 259.773438 132.183594 259.863281 131.738281 260.039062 131.3125 C 260.214844 130.882812 260.46875 130.507812 260.792969 130.179688 C 261.121094 129.855469 261.496094 129.601562 261.925781 129.425781 C 262.351562 129.25 262.792969 129.160156 263.257812 129.160156 C 263.71875 129.160156 264.164062 129.25 264.589844 129.425781 C 265.015625 129.601562 265.390625 129.855469 265.71875 130.179688 C 266.046875 130.507812 266.296875 130.882812 266.472656 131.3125 C 266.652344 131.738281 266.738281 132.183594 266.738281 132.644531 Z M 266.738281 132.644531 " fill-opacity="1" fill-rule="nonzero"/><path fill="#ffffff" d="M 126.84375 165.109375 C 126.84375 165.335938 126.800781 165.554688 126.710938 165.761719 C 126.625 165.96875 126.5 166.15625 126.335938 166.3125 C 126.171875 166.472656 125.984375 166.597656 125.769531 166.683594 C 125.558594 166.769531 125.335938 166.8125 125.105469 166.8125 C 124.875 166.8125 124.652344 166.769531 124.441406 166.683594 C 124.226562 166.597656 124.039062 166.472656 123.875 166.3125 C 123.714844 166.15625 123.589844 165.96875 123.5 165.761719 C 123.410156 165.554688 123.367188 165.335938 123.367188 165.109375 C 123.367188 164.882812 123.410156 164.667969 123.5 164.457031 C 123.589844 164.25 123.714844 164.066406 123.875 163.90625 C 124.039062 163.746094 124.226562 163.625 124.441406 163.535156 C 124.652344 163.449219 124.875 163.40625 125.105469 163.40625 C 125.335938 163.40625 125.558594 163.449219 125.769531 163.535156 C 125.984375 163.625 126.171875 163.746094 126.335938 163.90625 C 126.5 164.066406 126.625 164.25 126.710938 164.457031 C 126.800781 164.667969 126.84375 164.882812 126.84375 165.109375 Z M 126.84375 165.109375 " fill-opacity="1" fill-rule="nonzero"/><path fill="#ffffff" d="M 106.058594 157.261719 C 106.058594 157.636719 106.023438 158.007812 105.953125 158.375 C 105.882812 158.742188 105.777344 159.101562 105.636719 159.445312 C 105.496094 159.792969 105.328125 160.121094 105.125 160.433594 C 104.921875 160.746094 104.691406 161.03125 104.433594 161.296875 C 104.179688 161.5625 103.898438 161.800781 103.59375 162.007812 C 103.292969 162.214844 102.972656 162.390625 102.636719 162.535156 C 102.300781 162.679688 101.953125 162.785156 101.597656 162.859375 C 101.242188 162.933594 100.878906 162.96875 100.515625 162.96875 C 100.152344 162.96875 99.792969 162.933594 99.433594 162.859375 C 99.078125 162.785156 98.730469 162.679688 98.394531 162.535156 C 98.058594 162.390625 97.742188 162.214844 97.4375 162.007812 C 97.136719 161.800781 96.855469 161.5625 96.597656 161.296875 C 96.339844 161.03125 96.109375 160.746094 95.910156 160.433594 C 95.707031 160.121094 95.535156 159.792969 95.398438 159.445312 C 95.257812 159.101562 95.152344 158.742188 95.082031 158.375 C 95.011719 158.007812 94.976562 157.636719 94.976562 157.261719 C 94.976562 156.890625 95.011719 156.519531 95.082031 156.152344 C 95.152344 155.785156 95.257812 155.425781 95.398438 155.082031 C 95.535156 154.734375 95.707031 154.40625 95.910156 154.09375 C 96.109375 153.78125 96.339844 153.496094 96.597656 153.230469 C 96.855469 152.964844 97.136719 152.726562 97.4375 152.519531 C 97.742188 152.3125 98.058594 152.136719 98.394531 151.992188 C 98.730469 151.847656 99.078125 151.742188 99.433594 151.667969 C 99.792969 151.59375 100.152344 151.558594 100.515625 151.558594 C 100.878906 151.558594 101.242188 151.59375 101.597656 151.667969 C 101.953125 151.742188 102.300781 151.847656 102.636719 151.992188 C 102.972656 152.136719 103.292969 152.3125 103.59375 152.519531 C 103.898438 152.726562 104.179688 152.964844 104.433594 153.230469 C 104.691406 153.496094 104.921875 153.78125 105.125 154.09375 C 105.328125 154.40625 105.496094 154.734375 105.636719 155.082031 C 105.777344 155.425781 105.882812 155.785156 105.953125 156.152344 C 106.023438 156.519531 106.058594 156.890625 106.058594 157.261719 Z M 106.058594 157.261719 " fill-opacity="1" fill-rule="nonzero"/><path fill="#ffffff" d="M 238.519531 126.292969 C 238.519531 126.523438 238.476562 126.742188 238.390625 126.957031 C 238.304688 127.167969 238.179688 127.355469 238.019531 127.519531 C 237.859375 127.683594 237.675781 127.808594 237.46875 127.898438 C 237.257812 127.984375 237.042969 128.03125 236.816406 128.03125 C 236.589844 128.03125 236.375 127.984375 236.164062 127.898438 C 235.957031 127.808594 235.773438 127.683594 235.613281 127.519531 C 235.453125 127.355469 235.328125 127.167969 235.242188 126.957031 C 235.15625 126.742188 235.113281 126.523438 235.113281 126.292969 C 235.113281 126.058594 235.15625 125.839844 235.242188 125.625 C 235.328125 125.414062 235.453125 125.226562 235.613281 125.0625 C 235.773438 124.898438 235.957031 124.773438 236.164062 124.683594 C 236.375 124.597656 236.589844 124.550781 236.816406 124.550781 C 237.042969 124.550781 237.257812 124.597656 237.46875 124.683594 C 237.675781 124.773438 237.859375 124.898438 238.019531 125.0625 C 238.179688 125.226562 238.304688 125.414062 238.390625 125.625 C 238.476562 125.839844 238.519531 126.058594 238.519531 126.292969 Z M 238.519531 126.292969 " fill-opacity="1" fill-rule="nonzero"/><g fill="#ffffff" fill-opacity="1"><g transform="translate(29.33406, 339.933905)"><g><path d="M 17.34375 0 L 3.640625 0 L 3.640625 -32.640625 L 17.34375 -32.640625 Z M 17.34375 0 "/></g></g><g transform="translate(50.308197, 339.933905)"><g><path d="M 24.6875 0.703125 C 16.613281 0.703125 10.675781 -0.957031 6.875 -4.28125 C 3.5 -7.207031 1.8125 -11.210938 1.8125 -16.296875 C 1.8125 -21.367188 3.5 -25.378906 6.875 -28.328125 C 10.675781 -31.628906 16.613281 -33.28125 24.6875 -33.28125 C 29.414062 -33.28125 33.328125 -32.738281 36.421875 -31.65625 C 39.515625 -30.570312 41.914062 -29.085938 43.625 -27.203125 C 45.34375 -25.328125 46.484375 -23.175781 47.046875 -20.75 L 32.640625 -20.75 C 31.203125 -23.28125 28.550781 -24.546875 24.6875 -24.546875 C 21.375 -24.546875 18.9375 -23.59375 17.375 -21.6875 C 16.132812 -20.164062 15.515625 -18.367188 15.515625 -16.296875 C 15.515625 -14.210938 16.132812 -12.410156 17.375 -10.890625 C 18.9375 -8.984375 21.375 -8.03125 24.6875 -8.03125 C 28.550781 -8.03125 31.203125 -9.304688 32.640625 -11.859375 L 47.046875 -11.859375 C 46.484375 -9.410156 45.34375 -7.242188 43.625 -5.359375 C 41.914062 -3.484375 39.515625 -2.003906 36.421875 -0.921875 C 33.328125 0.160156 29.414062 0.703125 24.6875 0.703125 Z M 24.6875 0.703125 "/></g></g><g transform="translate(99.172022, 339.933905)"><g><path d="M 54.828125 0 L 40.953125 0 L 37.875 -5.34375 L 17.296875 -5.34375 L 14.21875 0 L 0.34375 0 L 21.21875 -32.625 L 33.9375 -32.625 Z M 33.265625 -13.421875 L 27.59375 -23.3125 L 21.90625 -13.421875 Z M 33.265625 -13.421875 "/></g></g><g transform="translate(154.337188, 339.933905)"><g><path d="M 52.078125 0 L 35.78125 0 L 17.34375 -22.09375 L 17.34375 0 L 3.640625 0 L 3.640625 -32.640625 L 19.9375 -32.640625 L 38.375 -10.671875 L 38.375 -32.640625 L 52.078125 -32.640625 Z M 52.078125 0 "/></g></g><g transform="translate(210.048317, 339.933905)"><g><path d="M 17.34375 0 L 3.640625 0 L 3.640625 -32.640625 L 41.15625 -32.640625 L 41.15625 -24.578125 L 17.34375 -24.578125 L 17.34375 -19.453125 L 37.46875 -19.453125 L 37.46875 -13.171875 L 17.34375 -13.171875 Z M 17.34375 0 "/></g></g><g transform="translate(253.020275, 339.933905)"><g><path d="M 41.75 0 L 3.640625 0 L 3.640625 -32.640625 L 17.34375 -32.640625 L 17.34375 -8.078125 L 41.75 -8.078125 Z M 41.75 0 "/></g></g><g transform="translate(295.673753, 339.933905)"><g><path d="M 31.84375 0 L 18.15625 0 L 18.15625 -15.46875 L 0.34375 -32.640625 L 15.515625 -32.640625 L 25 -22.890625 L 34.46875 -32.640625 L 49.640625 -32.640625 L 31.84375 -15.46875 Z M 31.84375 0 "/></g></g></g><g fill="#ffffff" fill-opacity="1"><g transform="translate(109.638039, 367.701065)"><g><path d="M 2.796875 -1.921875 C 1.390625 -3.296875 0.6875 -5.03125 0.6875 -7.125 C 0.6875 -9.226562 1.390625 -10.960938 2.796875 -12.328125 C 4.203125 -13.691406 5.921875 -14.375 7.953125 -14.375 C 9.523438 -14.375 10.921875 -13.957031 12.140625 -13.125 C 13.367188 -12.289062 14.226562 -11.132812 14.71875 -9.65625 L 10.59375 -9.65625 C 10.0625 -10.6875 9.203125 -11.203125 8.015625 -11.203125 C 6.828125 -11.203125 5.894531 -10.832031 5.21875 -10.09375 C 4.539062 -9.351562 4.203125 -8.363281 4.203125 -7.125 C 4.203125 -5.882812 4.539062 -4.894531 5.21875 -4.15625 C 5.894531 -3.414062 6.828125 -3.046875 8.015625 -3.046875 C 9.203125 -3.046875 10.0625 -3.566406 10.59375 -4.609375 L 14.71875 -4.609375 C 14.226562 -3.117188 13.367188 -1.957031 12.140625 -1.125 C 10.921875 -0.289062 9.523438 0.125 7.953125 0.125 C 5.921875 0.125 4.203125 -0.554688 2.796875 -1.921875 Z M 2.796875 -1.921875 "/></g></g></g><g fill="#ffffff" fill-opacity="1"><g transform="translate(133.132876, 367.701065)"><g><path d="M 10.671875 -4.15625 C 11.347656 -4.894531 11.6875 -5.882812 11.6875 -7.125 C 11.6875 -8.363281 11.347656 -9.351562 10.671875 -10.09375 C 9.992188 -10.832031 9.082031 -11.203125 7.9375 -11.203125 C 6.800781 -11.203125 5.894531 -10.832031 5.21875 -10.09375 C 4.539062 -9.351562 4.203125 -8.363281 4.203125 -7.125 C 4.203125 -5.882812 4.539062 -4.894531 5.21875 -4.15625 C 5.894531 -3.414062 6.800781 -3.046875 7.9375 -3.046875 C 9.082031 -3.046875 9.992188 -3.414062 10.671875 -4.15625 Z M 2.796875 -1.921875 C 1.390625 -3.296875 0.6875 -5.03125 0.6875 -7.125 C 0.6875 -9.226562 1.390625 -10.960938 2.796875 -12.328125 C 4.203125 -13.691406 5.921875 -14.375 7.953125 -14.375 C 9.992188 -14.375 11.710938 -13.691406 13.109375 -12.328125 C 14.503906 -10.960938 15.203125 -9.226562 15.203125 -7.125 C 15.203125 -5.03125 14.5 -3.296875 13.09375 -1.921875 C 11.695312 -0.546875 9.984375 0.140625 7.953125 0.140625 C 5.921875 0.140625 4.203125 -0.546875 2.796875 -1.921875 Z M 2.796875 -1.921875 "/></g></g></g><g fill="#ffffff" fill-opacity="1"><g transform="translate(157.112079, 367.701065)"><g><path d="M 17.5625 -14.171875 L 17.5625 0 L 14.109375 0 L 14.109375 -8 L 10.828125 0 L 8.25 0 L 4.96875 -8 L 4.96875 0 L 1.515625 0 L 1.515625 -14.171875 L 5.46875 -14.171875 L 9.546875 -4.40625 L 13.609375 -14.171875 Z M 17.5625 -14.171875 "/></g></g></g><g fill="#ffffff" fill-opacity="1"><g transform="translate(184.259926, 367.701065)"><g><path d="M 12.3125 -9.828125 C 12.3125 -8.867188 11.96875 -7.945312 11.28125 -7.0625 C 10.914062 -6.601562 10.375 -6.226562 9.65625 -5.9375 C 8.9375 -5.65625 8.085938 -5.515625 7.109375 -5.515625 L 4.96875 -5.515625 L 4.96875 0 L 1.515625 0 L 1.515625 -14.171875 L 7.109375 -14.171875 C 8.742188 -14.171875 10.019531 -13.742188 10.9375 -12.890625 C 11.851562 -12.046875 12.3125 -11.023438 12.3125 -9.828125 Z M 4.96875 -8.140625 L 7.109375 -8.140625 C 7.628906 -8.140625 8.039062 -8.289062 8.34375 -8.59375 C 8.644531 -8.90625 8.796875 -9.3125 8.796875 -9.8125 C 8.796875 -10.320312 8.640625 -10.738281 8.328125 -11.0625 C 8.023438 -11.382812 7.617188 -11.546875 7.109375 -11.546875 L 4.96875 -11.546875 Z M 4.96875 -8.140625 "/></g></g></g><g fill="#ffffff" fill-opacity="1"><g transform="translate(205.211776, 367.701065)"><g><path d="M 10.515625 0 L 9.734375 -2.375 L 4.640625 -2.375 L 3.859375 0 L 0.1875 0 L 5.109375 -14.21875 L 9.3125 -14.21875 L 14.21875 0 Z M 5.515625 -5 L 8.859375 -5 L 7.1875 -10.046875 Z M 5.515625 -5 "/></g></g></g><g fill="#ffffff" fill-opacity="1"><g transform="translate(227.677292, 367.701065)"><g><path d="M 10.734375 -14.21875 L 14.1875 -14.21875 L 14.1875 0 L 10.734375 0 L 4.96875 -8.9375 L 4.96875 0 L 1.515625 0 L 1.515625 -14.21875 L 4.96875 -14.21875 L 10.734375 -5.265625 Z M 10.734375 -14.21875 "/></g></g></g><g fill="#ffffff" fill-opacity="1"><g transform="translate(251.45467, 367.701065)"><g><path d="M 8.65625 0 L 5.203125 0 L 5.203125 -4.5625 L 0.296875 -14.171875 L 4.21875 -14.171875 L 6.9375 -7.765625 L 9.65625 -14.171875 L 13.5625 -14.171875 L 8.65625 -4.5625 Z M 8.65625 0 "/></g></g></g></svg>